<svg xmlns="http://www.w3.org/2000/svg" xmlns:xlink="http://www.w3.org/1999/xlink" width="120" zoomAndPan="magnify" viewBox="0 0 90 52.499999" height="70" preserveAspectRatio="xMidYMid meet" version="1.0"><defs><g/><clipPath id="8df8a09bea"><path d="M 44.808594 31 L 47 31 L 47 34 L 44.808594 34 Z M 44.808594 31 " clip-rule="nonzero"/></clipPath><clipPath id="e187482189"><path d="M 61 32 L 63.382812 32 L 63.382812 33 L 61 33 Z M 61 32 " clip-rule="nonzero"/></clipPath><clipPath id="7548396970"><path d="M 61 35 L 63.382812 35 L 63.382812 37 L 61 37 Z M 61 35 " clip-rule="nonzero"/></clipPath><clipPath id="5675a68811"><path d="M 61 28 L 63.382812 28 L 63.382812 30 L 61 30 Z M 61 28 " clip-rule="nonzero"/></clipPath><clipPath id="7e0010a458"><path d="M 60 39 L 62 39 L 62 39.945312 L 60 39.945312 Z M 60 39 " clip-rule="nonzero"/></clipPath><clipPath id="18106b9b40"><path d="M 60 24.34375 L 62 24.34375 L 62 26 L 60 26 Z M 60 24.34375 " clip-rule="nonzero"/></clipPath><clipPath id="fb403963e4"><path d="M 1.035156 3.570312 L 51.871094 3.570312 L 51.871094 48.144531 L 1.035156 48.144531 Z M 1.035156 3.570312 " clip-rule="nonzero"/></clipPath><clipPath id="025d4284cb"><path d="M 48.890625 33.875 L 89 33.875 L 89 48.734375 L 48.890625 48.734375 Z M 48.890625 33.875 " clip-rule="nonzero"/></clipPath><clipPath id="a3e1fd3639"><path d="M 84 19 L 89.574219 19 L 89.574219 25 L 84 25 Z M 84 19 " clip-rule="nonzero"/></clipPath><clipPath id="690add5e59"><path d="M 36 12 L 89.574219 12 L 89.574219 27 L 36 27 Z M 36 12 " clip-rule="nonzero"/></clipPath><clipPath id="f63930050f"><path d="M 72 23 L 89.574219 23 L 89.574219 37 L 72 37 Z M 72 23 " clip-rule="nonzero"/></clipPath></defs><g clip-path="url(#8df8a09bea)"><path fill="#e98321" d="M 46.113281 31.546875 L 44.960938 32.085938 C 44.960938 32.085938 44.960938 32.085938 44.960938 32.089844 C 44.957031 32.089844 44.957031 32.089844 44.953125 32.089844 C 44.953125 32.09375 44.949219 32.09375 44.949219 32.09375 C 44.949219 32.09375 44.945312 32.09375 44.945312 32.097656 C 44.945312 32.097656 44.941406 32.097656 44.941406 32.097656 C 44.9375 32.101562 44.9375 32.101562 44.9375 32.101562 C 44.9375 32.101562 44.933594 32.101562 44.933594 32.105469 C 44.929688 32.105469 44.929688 32.105469 44.929688 32.105469 C 44.925781 32.109375 44.925781 32.109375 44.925781 32.109375 C 44.921875 32.109375 44.921875 32.113281 44.917969 32.113281 C 44.917969 32.113281 44.917969 32.113281 44.914062 32.117188 C 44.914062 32.117188 44.914062 32.117188 44.910156 32.117188 C 44.910156 32.121094 44.910156 32.121094 44.90625 32.121094 C 44.90625 32.121094 44.90625 32.121094 44.902344 32.125 C 44.902344 32.125 44.902344 32.125 44.898438 32.128906 C 44.898438 32.128906 44.898438 32.128906 44.894531 32.128906 C 44.894531 32.132812 44.894531 32.132812 44.890625 32.132812 C 44.890625 32.136719 44.890625 32.136719 44.886719 32.136719 C 44.886719 32.140625 44.886719 32.140625 44.886719 32.140625 C 44.882812 32.140625 44.882812 32.144531 44.882812 32.144531 C 44.882812 32.144531 44.878906 32.148438 44.878906 32.148438 C 44.878906 32.148438 44.878906 32.148438 44.875 32.152344 C 44.875 32.152344 44.875 32.152344 44.871094 32.15625 C 44.871094 32.15625 44.871094 32.15625 44.871094 32.160156 C 44.867188 32.160156 44.867188 32.160156 44.867188 32.164062 C 44.863281 32.164062 44.863281 32.164062 44.863281 32.167969 C 44.863281 32.167969 44.859375 32.167969 44.859375 32.171875 C 44.859375 32.171875 44.859375 32.171875 44.855469 32.175781 C 44.855469 32.175781 44.855469 32.179688 44.855469 32.179688 C 44.851562 32.179688 44.851562 32.183594 44.851562 32.183594 C 44.851562 32.183594 44.847656 32.1875 44.847656 32.1875 C 44.847656 32.1875 44.847656 32.191406 44.847656 32.191406 C 44.84375 32.191406 44.84375 32.195312 44.84375 32.195312 C 44.84375 32.199219 44.839844 32.199219 44.839844 32.199219 C 44.839844 32.203125 44.839844 32.203125 44.839844 32.207031 C 44.835938 32.207031 44.835938 32.207031 44.835938 32.210938 C 44.835938 32.210938 44.835938 32.214844 44.835938 32.214844 C 44.832031 32.214844 44.832031 32.21875 44.832031 32.21875 C 44.832031 32.21875 44.832031 32.222656 44.832031 32.222656 C 44.828125 32.226562 44.828125 32.226562 44.828125 32.230469 C 44.828125 32.230469 44.828125 32.234375 44.824219 32.234375 C 44.824219 32.234375 44.824219 32.238281 44.824219 32.238281 C 44.824219 32.238281 44.824219 32.242188 44.824219 32.242188 C 44.824219 32.242188 44.820312 32.246094 44.820312 32.246094 C 44.820312 32.25 44.820312 32.25 44.820312 32.253906 C 44.820312 32.253906 44.820312 32.257812 44.820312 32.257812 C 44.816406 32.261719 44.816406 32.261719 44.816406 32.265625 C 44.816406 32.265625 44.816406 32.269531 44.816406 32.269531 C 44.816406 32.269531 44.816406 32.273438 44.816406 32.273438 C 44.816406 32.277344 44.8125 32.277344 44.8125 32.28125 C 44.8125 32.285156 44.8125 32.285156 44.8125 32.289062 C 44.8125 32.289062 44.8125 32.292969 44.8125 32.292969 C 44.8125 32.296875 44.8125 32.296875 44.8125 32.300781 C 44.8125 32.300781 44.8125 32.304688 44.8125 32.308594 C 44.8125 32.308594 44.8125 32.3125 44.8125 32.3125 C 44.8125 32.316406 44.8125 32.316406 44.8125 32.320312 C 44.8125 32.320312 44.8125 32.320312 44.8125 32.324219 C 44.8125 32.324219 44.8125 32.328125 44.8125 32.332031 C 44.8125 32.332031 44.8125 32.335938 44.8125 32.335938 C 44.8125 32.339844 44.8125 32.339844 44.8125 32.34375 C 44.8125 32.347656 44.8125 32.347656 44.8125 32.347656 C 44.8125 32.351562 44.8125 32.351562 44.8125 32.355469 C 44.8125 32.359375 44.816406 32.359375 44.816406 32.363281 C 44.816406 32.363281 44.816406 32.367188 44.816406 32.367188 C 44.816406 32.371094 44.816406 32.371094 44.816406 32.371094 C 44.816406 32.371094 44.816406 32.371094 44.816406 32.375 C 44.816406 32.375 44.816406 32.378906 44.820312 32.378906 C 44.820312 32.382812 44.820312 32.382812 44.820312 32.386719 C 44.820312 32.386719 44.820312 32.390625 44.820312 32.390625 C 44.824219 32.394531 44.824219 32.394531 44.824219 32.398438 C 44.824219 32.398438 44.824219 32.402344 44.824219 32.402344 C 44.828125 32.402344 44.828125 32.40625 44.828125 32.40625 C 44.828125 32.410156 44.828125 32.410156 44.828125 32.410156 C 44.828125 32.410156 44.828125 32.414062 44.828125 32.414062 C 44.828125 32.414062 44.832031 32.414062 44.832031 32.414062 C 44.832031 32.417969 44.832031 32.421875 44.832031 32.421875 C 44.835938 32.421875 44.835938 32.425781 44.835938 32.425781 C 44.835938 32.425781 44.835938 32.429688 44.835938 32.429688 C 44.839844 32.429688 44.839844 32.433594 44.839844 32.433594 C 44.839844 32.433594 44.839844 32.4375 44.839844 32.4375 C 44.839844 32.4375 44.839844 32.4375 44.84375 32.4375 C 44.84375 32.4375 44.84375 32.4375 44.84375 32.441406 C 44.84375 32.441406 44.847656 32.445312 44.847656 32.445312 C 44.847656 32.449219 44.847656 32.449219 44.851562 32.449219 C 44.851562 32.453125 44.851562 32.453125 44.851562 32.457031 C 44.851562 32.457031 44.855469 32.457031 44.855469 32.457031 C 44.855469 32.457031 44.855469 32.457031 44.855469 32.460938 C 44.855469 32.460938 44.855469 32.460938 44.859375 32.460938 C 44.859375 32.460938 44.859375 32.464844 44.859375 32.464844 C 44.863281 32.46875 44.863281 32.46875 44.863281 32.46875 C 44.863281 32.46875 44.863281 32.472656 44.863281 32.472656 C 44.867188 32.472656 44.867188 32.472656 44.867188 32.476562 C 44.867188 32.476562 44.871094 32.476562 44.871094 32.476562 C 44.871094 32.480469 44.871094 32.480469 44.875 32.480469 C 44.875 32.484375 44.878906 32.488281 44.878906 32.488281 C 44.878906 32.488281 44.878906 32.488281 44.882812 32.492188 C 44.882812 32.496094 44.886719 32.496094 44.886719 32.496094 C 44.886719 32.5 44.886719 32.5 44.890625 32.5 C 44.890625 32.5 44.890625 32.5 44.894531 32.503906 C 44.898438 32.507812 44.898438 32.507812 44.898438 32.511719 C 44.902344 32.511719 44.902344 32.511719 44.902344 32.511719 C 44.90625 32.515625 44.90625 32.515625 44.90625 32.515625 C 44.910156 32.515625 44.910156 32.519531 44.910156 32.519531 C 44.914062 32.519531 44.914062 32.519531 44.914062 32.519531 C 44.914062 32.523438 44.917969 32.523438 44.917969 32.523438 C 44.917969 32.523438 44.917969 32.523438 44.921875 32.527344 C 44.921875 32.527344 44.921875 32.527344 44.925781 32.527344 C 44.925781 32.53125 44.925781 32.53125 44.929688 32.53125 C 44.929688 32.535156 44.933594 32.535156 44.9375 32.535156 C 44.9375 32.539062 44.9375 32.539062 44.941406 32.539062 C 44.941406 32.539062 44.945312 32.542969 44.945312 32.542969 C 44.945312 32.542969 44.949219 32.542969 44.949219 32.542969 C 44.953125 32.546875 44.953125 32.546875 44.957031 32.546875 C 44.960938 32.550781 44.960938 32.550781 44.960938 32.550781 L 44.964844 32.550781 L 46.117188 33.089844 C 46.152344 33.105469 46.1875 33.113281 46.222656 33.113281 C 46.320312 33.113281 46.410156 33.058594 46.453125 32.964844 C 46.480469 32.90625 46.480469 31.730469 46.453125 31.671875 C 46.394531 31.542969 46.242188 31.488281 46.113281 31.546875 Z M 46.113281 31.546875 " fill-opacity="1" fill-rule="nonzero"/></g><path fill="#e98321" d="M 50.25 32.0625 L 49.46875 32.0625 C 49.328125 32.0625 49.214844 32.175781 49.214844 32.316406 C 49.214844 32.457031 49.328125 32.574219 49.46875 32.574219 L 50.25 32.574219 C 50.390625 32.574219 50.507812 32.457031 50.507812 32.316406 C 50.507812 32.175781 50.390625 32.0625 50.25 32.0625 Z M 50.25 32.0625 " fill-opacity="1" fill-rule="nonzero"/><path fill="#e98321" d="M 58.851562 32.0625 L 58.070312 32.0625 C 57.929688 32.0625 57.8125 32.175781 57.8125 32.316406 C 57.8125 32.457031 57.929688 32.574219 58.070312 32.574219 L 58.851562 32.574219 C 58.992188 32.574219 59.105469 32.457031 59.105469 32.316406 C 59.105469 32.175781 58.992188 32.0625 58.851562 32.0625 Z M 58.851562 32.0625 " fill-opacity="1" fill-rule="nonzero"/><path fill="#e98321" d="M 54.941406 32.0625 L 53.378906 32.0625 C 53.238281 32.0625 53.125 32.175781 53.125 32.316406 C 53.125 32.457031 53.238281 32.574219 53.378906 32.574219 L 54.941406 32.574219 C 55.082031 32.574219 55.195312 32.457031 55.195312 32.316406 C 55.195312 32.175781 55.082031 32.0625 54.941406 32.0625 Z M 54.941406 32.0625 " fill-opacity="1" fill-rule="nonzero"/><g clip-path="url(#e187482189)"><path fill="#e98321" d="M 63.253906 32.0625 L 61.976562 32.0625 C 61.835938 32.0625 61.722656 32.175781 61.722656 32.316406 C 61.722656 32.457031 61.835938 32.574219 61.976562 32.574219 L 63.253906 32.574219 C 63.394531 32.574219 63.507812 32.457031 63.507812 32.316406 C 63.507812 32.175781 63.394531 32.0625 63.253906 32.0625 Z M 63.253906 32.0625 " fill-opacity="1" fill-rule="nonzero"/></g><path fill="#e98321" d="M 50.191406 33.144531 L 49.425781 32.984375 C 49.289062 32.953125 49.152344 33.042969 49.125 33.179688 C 49.09375 33.316406 49.183594 33.453125 49.320312 33.480469 L 50.085938 33.644531 C 50.101562 33.648438 50.121094 33.652344 50.136719 33.652344 C 50.253906 33.652344 50.359375 33.570312 50.386719 33.449219 C 50.417969 33.3125 50.328125 33.175781 50.191406 33.144531 Z M 50.191406 33.144531 " fill-opacity="1" fill-rule="nonzero"/><path fill="#e98321" d="M 54.777344 34.121094 L 53.25 33.796875 C 53.113281 33.765625 52.976562 33.855469 52.945312 33.992188 C 52.917969 34.132812 53.003906 34.265625 53.144531 34.296875 L 54.671875 34.621094 C 54.691406 34.625 54.707031 34.625 54.726562 34.625 C 54.84375 34.625 54.949219 34.542969 54.972656 34.425781 C 55.003906 34.285156 54.917969 34.152344 54.777344 34.121094 Z M 54.777344 34.121094 " fill-opacity="1" fill-rule="nonzero"/><path fill="#e98321" d="M 58.601562 34.933594 L 57.839844 34.773438 C 57.699219 34.742188 57.566406 34.828125 57.535156 34.96875 C 57.507812 35.105469 57.59375 35.242188 57.730469 35.269531 L 58.496094 35.433594 C 58.515625 35.4375 58.53125 35.4375 58.550781 35.4375 C 58.667969 35.4375 58.773438 35.355469 58.796875 35.238281 C 58.828125 35.097656 58.738281 34.964844 58.601562 34.933594 Z M 58.601562 34.933594 " fill-opacity="1" fill-rule="nonzero"/><g clip-path="url(#7548396970)"><path fill="#e98321" d="M 62.90625 35.847656 L 61.660156 35.585938 C 61.523438 35.554688 61.390625 35.644531 61.359375 35.78125 C 61.328125 35.917969 61.417969 36.054688 61.554688 36.082031 L 62.800781 36.347656 C 62.820312 36.351562 62.835938 36.355469 62.855469 36.355469 C 62.972656 36.355469 63.078125 36.273438 63.101562 36.152344 C 63.132812 36.015625 63.046875 35.878906 62.90625 35.847656 Z M 62.90625 35.847656 " fill-opacity="1" fill-rule="nonzero"/></g><path fill="#e98321" d="M 49.125 31.457031 C 49.148438 31.574219 49.253906 31.65625 49.371094 31.65625 C 49.390625 31.65625 49.40625 31.65625 49.425781 31.652344 L 50.191406 31.488281 C 50.328125 31.460938 50.414062 31.324219 50.386719 31.1875 C 50.355469 31.050781 50.222656 30.960938 50.085938 30.992188 L 49.320312 31.152344 C 49.183594 31.183594 49.09375 31.316406 49.125 31.457031 Z M 49.125 31.457031 " fill-opacity="1" fill-rule="nonzero"/><path fill="#e98321" d="M 57.535156 29.667969 C 57.5625 29.789062 57.667969 29.871094 57.785156 29.871094 C 57.800781 29.871094 57.820312 29.867188 57.835938 29.863281 L 58.601562 29.703125 C 58.738281 29.671875 58.828125 29.535156 58.796875 29.398438 C 58.769531 29.261719 58.632812 29.171875 58.496094 29.203125 L 57.730469 29.367188 C 57.59375 29.394531 57.507812 29.53125 57.535156 29.667969 Z M 57.535156 29.667969 " fill-opacity="1" fill-rule="nonzero"/><path fill="#e98321" d="M 52.945312 30.644531 C 52.972656 30.761719 53.078125 30.84375 53.195312 30.84375 C 53.214844 30.84375 53.230469 30.84375 53.25 30.839844 L 54.777344 30.515625 C 54.917969 30.484375 55.003906 30.351562 54.972656 30.210938 C 54.945312 30.074219 54.808594 29.988281 54.671875 30.015625 L 53.144531 30.339844 C 53.003906 30.371094 52.917969 30.503906 52.945312 30.644531 Z M 52.945312 30.644531 " fill-opacity="1" fill-rule="nonzero"/><g clip-path="url(#5675a68811)"><path fill="#e98321" d="M 61.359375 28.855469 C 61.386719 28.976562 61.492188 29.058594 61.609375 29.058594 C 61.625 29.058594 61.644531 29.054688 61.660156 29.050781 L 62.90625 28.785156 C 63.046875 28.757812 63.132812 28.621094 63.105469 28.484375 C 63.074219 28.347656 62.941406 28.257812 62.800781 28.289062 L 61.554688 28.550781 C 61.417969 28.582031 61.332031 28.71875 61.359375 28.855469 Z M 61.359375 28.855469 " fill-opacity="1" fill-rule="nonzero"/></g><path fill="#e98321" d="M 49.875 34.277344 L 49.164062 33.945312 C 49.035156 33.886719 48.886719 33.941406 48.828125 34.070312 C 48.765625 34.199219 48.820312 34.347656 48.949219 34.410156 L 49.65625 34.738281 C 49.691406 34.753906 49.730469 34.761719 49.765625 34.761719 C 49.863281 34.761719 49.953125 34.707031 49.996094 34.617188 C 50.054688 34.488281 50 34.335938 49.875 34.277344 Z M 49.875 34.277344 " fill-opacity="1" fill-rule="nonzero"/><path fill="#e98321" d="M 54.125 36.261719 L 52.707031 35.597656 C 52.578125 35.539062 52.429688 35.59375 52.367188 35.722656 C 52.308594 35.851562 52.363281 36 52.492188 36.0625 L 53.910156 36.722656 C 53.945312 36.738281 53.980469 36.746094 54.015625 36.746094 C 54.113281 36.746094 54.203125 36.691406 54.246094 36.597656 C 54.308594 36.472656 54.253906 36.320312 54.125 36.261719 Z M 54.125 36.261719 " fill-opacity="1" fill-rule="nonzero"/><path fill="#e98321" d="M 57.667969 37.910156 L 56.960938 37.582031 C 56.832031 37.523438 56.679688 37.578125 56.621094 37.703125 C 56.5625 37.832031 56.617188 37.984375 56.742188 38.042969 L 57.453125 38.375 C 57.488281 38.390625 57.523438 38.398438 57.558594 38.398438 C 57.65625 38.398438 57.746094 38.34375 57.789062 38.25 C 57.851562 38.125 57.792969 37.972656 57.667969 37.910156 Z M 57.667969 37.910156 " fill-opacity="1" fill-rule="nonzero"/><g clip-path="url(#7e0010a458)"><path fill="#e98321" d="M 61.65625 39.773438 L 60.5 39.234375 C 60.375 39.175781 60.222656 39.226562 60.164062 39.355469 C 60.105469 39.484375 60.160156 39.636719 60.285156 39.695312 L 61.441406 40.234375 C 61.476562 40.25 61.511719 40.257812 61.546875 40.257812 C 61.644531 40.257812 61.734375 40.203125 61.777344 40.109375 C 61.839844 39.984375 61.785156 39.832031 61.65625 39.773438 Z M 61.65625 39.773438 " fill-opacity="1" fill-rule="nonzero"/></g><path fill="#e98321" d="M 49.058594 30.714844 C 49.09375 30.714844 49.128906 30.707031 49.164062 30.6875 L 49.875 30.359375 C 50 30.300781 50.054688 30.148438 49.996094 30.019531 C 49.9375 29.890625 49.785156 29.835938 49.65625 29.898438 L 48.949219 30.226562 C 48.820312 30.285156 48.765625 30.4375 48.828125 30.566406 C 48.867188 30.660156 48.960938 30.714844 49.058594 30.714844 Z M 49.058594 30.714844 " fill-opacity="1" fill-rule="nonzero"/><path fill="#e98321" d="M 56.851562 27.078125 C 56.886719 27.078125 56.925781 27.070312 56.960938 27.054688 L 57.667969 26.722656 C 57.796875 26.664062 57.851562 26.511719 57.789062 26.386719 C 57.730469 26.257812 57.578125 26.203125 57.453125 26.261719 L 56.742188 26.59375 C 56.617188 26.652344 56.5625 26.804688 56.621094 26.929688 C 56.664062 27.023438 56.753906 27.078125 56.851562 27.078125 Z M 56.851562 27.078125 " fill-opacity="1" fill-rule="nonzero"/><path fill="#e98321" d="M 52.597656 29.0625 C 52.636719 29.0625 52.671875 29.054688 52.707031 29.035156 L 54.125 28.375 C 54.253906 28.316406 54.304688 28.164062 54.246094 28.039062 C 54.1875 27.910156 54.035156 27.855469 53.910156 27.914062 L 52.492188 28.574219 C 52.363281 28.632812 52.308594 28.785156 52.367188 28.914062 C 52.410156 29.007812 52.503906 29.0625 52.597656 29.0625 Z M 52.597656 29.0625 " fill-opacity="1" fill-rule="nonzero"/><g clip-path="url(#18106b9b40)"><path fill="#e98321" d="M 60.394531 25.425781 C 60.429688 25.425781 60.464844 25.417969 60.5 25.402344 L 61.65625 24.863281 C 61.785156 24.804688 61.839844 24.652344 61.777344 24.523438 C 61.71875 24.398438 61.566406 24.34375 61.441406 24.402344 L 60.285156 24.941406 C 60.160156 25 60.105469 25.152344 60.164062 25.277344 C 60.207031 25.371094 60.296875 25.425781 60.394531 25.425781 Z M 60.394531 25.425781 " fill-opacity="1" fill-rule="nonzero"/></g><g clip-path="url(#fb403963e4)"><path fill="#004aad" d="M 1.660156 43.835938 C 0.203125 46.355469 1.382812 48.394531 4.292969 48.390625 L 26.453125 48.367188 L 48.613281 48.390625 C 51.523438 48.394531 52.703125 46.355469 51.242188 43.835938 L 40.140625 24.660156 L 29.082031 5.460938 C 27.628906 2.9375 25.273438 2.9375 23.824219 5.460938 L 12.761719 24.660156 L 1.660156 43.835938 " fill-opacity="1" fill-rule="evenodd"/></g><path fill="#e98321" d="M 48.617188 47.058594 C 50.5 47.0625 51.035156 46.132812 50.089844 44.503906 L 27.929688 6.125 C 26.988281 4.492188 25.917969 4.492188 24.976562 6.125 L 2.8125 44.503906 C 1.871094 46.132812 2.40625 47.0625 4.289062 47.058594 L 48.617188 47.058594 " fill-opacity="1" fill-rule="evenodd"/><path fill="#ffffff" d="M 31.171875 47.058594 L 30.933594 46.863281 L 31.265625 47.058594 L 33.085938 47.058594 L 31.441406 46.015625 L 33.855469 47.058594 L 35.976562 47.058594 L 31.84375 45.113281 L 38.554688 47.058594 L 41.015625 47.058594 L 32.125 44.164062 L 49.648438 46.933594 C 49.890625 46.859375 50.085938 46.757812 50.230469 46.621094 L 32.285156 43.191406 L 49.644531 43.726562 L 49.386719 43.285156 L 32.324219 42.203125 L 47.910156 40.722656 L 47.640625 40.257812 L 32.238281 41.21875 L 46.367188 38.054688 L 46.09375 37.578125 L 32.027344 40.253906 L 44.949219 35.59375 L 44.667969 35.113281 L 31.699219 39.320312 L 43.59375 33.253906 L 43.316406 32.769531 L 31.257812 38.4375 L 42.265625 30.949219 L 41.984375 30.464844 L 30.707031 37.613281 L 40.914062 28.609375 L 40.636719 28.128906 L 30.058594 36.871094 L 39.496094 26.15625 L 39.222656 25.679688 L 29.324219 36.210938 L 37.957031 23.492188 L 37.691406 23.027344 L 28.507812 35.648438 L 36.226562 20.492188 L 35.96875 20.046875 L 27.632812 35.195312 L 34.1875 16.960938 L 33.957031 16.5625 L 26.703125 34.851562 L 31.667969 12.601562 L 31.488281 12.289062 L 25.742188 34.628906 L 28.355469 6.859375 L 28.285156 6.738281 L 24.757812 34.53125 L 23.914062 7.964844 L 23.785156 8.1875 L 23.769531 34.554688 L 20.488281 13.894531 L 20.230469 14.339844 L 22.792969 34.703125 L 17.996094 18.214844 L 17.6875 18.75 L 21.84375 34.972656 L 16.046875 21.589844 L 15.714844 22.160156 L 20.933594 35.359375 L 14.433594 24.378906 L 14.097656 24.964844 L 20.078125 35.855469 L 13.042969 26.792969 L 12.703125 27.375 L 19.292969 36.457031 L 11.789062 28.960938 L 11.453125 29.542969 L 18.589844 37.148438 L 10.625 30.976562 L 10.289062 31.558594 L 17.976562 37.925781 L 9.503906 32.917969 L 9.167969 33.5 L 17.46875 38.773438 L 8.390625 34.847656 L 8.054688 35.429688 L 17.070312 39.675781 L 7.246094 36.828125 L 6.910156 37.410156 L 16.789062 40.625 L 6.035156 38.925781 L 5.699219 39.507812 L 16.625 41.601562 L 4.703125 41.230469 L 4.367188 41.8125 L 16.589844 42.585938 L 3.1875 43.859375 L 2.855469 44.433594 L 16.675781 43.570312 L 2.753906 46.6875 C 2.988281 46.867188 3.328125 46.984375 3.765625 47.03125 L 16.882812 44.539062 L 9.886719 47.058594 L 12.308594 47.058594 L 17.210938 45.46875 L 14.09375 47.058594 L 16.152344 47.058594 L 17.652344 46.355469 L 16.617188 47.058594 L 31.171875 47.058594 " fill-opacity="1" fill-rule="nonzero"/><path fill="#004aad" d="M 32.554688 33.246094 C 35.964844 31.304688 40.113281 30.375 45.171875 30.917969 C 45.976562 31.171875 45.96875 33.5 45.113281 33.609375 C 39.5625 33.664062 37.183594 34.855469 35.246094 35.882812 L 32.554688 33.246094 " fill-opacity="1" fill-rule="evenodd"/><path fill="#004aad" d="M 45.199219 31.175781 L 46.066406 31.261719 C 46.761719 31.410156 46.683594 33.027344 46.082031 33.125 L 45.15625 33.132812 C 45.328125 32.730469 45.386719 32 45.199219 31.175781 " fill-opacity="1" fill-rule="evenodd"/><path fill="#004aad" d="M 25.144531 17.636719 L 25.574219 16.878906 C 25.683594 15.789062 25.839844 14.867188 26.007812 14.390625 C 26.542969 11.863281 28.167969 10.402344 30.871094 10.347656 C 34.183594 10.28125 35.691406 11.726562 35.4375 15.039062 L 38.082031 17.542969 C 37.578125 17.960938 35.886719 18.28125 34.527344 17.699219 L 34.785156 18.886719 C 35.242188 19.703125 34.816406 20.355469 33.6875 19.878906 L 33.621094 20.601562 L 33.277344 20.789062 C 33.351562 21.300781 33.171875 21.449219 32.753906 21.652344 C 32.851562 22.855469 32.144531 23.140625 30.875 22.679688 L 30.914062 23.289062 C 32.511719 25.226562 33.371094 25.371094 33.230469 33.359375 L 37.382812 31.910156 C 37.886719 31.417969 38.453125 30.960938 39.773438 30.335938 C 40.117188 30.078125 40.792969 29.773438 41.109375 29.632812 C 41.65625 29.644531 42.226562 29.550781 42.8125 29.351562 C 43.503906 29.320312 43.511719 30.6875 41.757812 30.828125 L 43.230469 31.058594 C 43.472656 31.757812 43.542969 32.632812 43.441406 33.683594 C 43.304688 34.183594 42.730469 35.101562 42.148438 35.078125 C 41.761719 35.464844 41.199219 35.34375 40.980469 35.289062 C 40.605469 35.464844 40.296875 35.527344 39.824219 35.402344 C 39.453125 35.5 39 35.386719 37.941406 35.269531 L 37.378906 35.722656 C 37.71875 36.589844 37.511719 37.460938 37.265625 37.9375 C 35.226562 39.859375 34.480469 40.324219 31.066406 41.300781 L 30.488281 44.027344 L 30.535156 47.269531 L 12.433594 47.355469 C 12.574219 45.101562 13.964844 39.351562 13.964844 39.351562 C 11.066406 38.542969 10.378906 34.316406 11.570312 30.761719 C 12.183594 28.9375 13.574219 24.929688 15.882812 21.621094 C 16.566406 20.644531 18.964844 19.550781 23.828125 18.640625 C 24.042969 18.152344 24.550781 17.683594 25.144531 17.636719 " fill-opacity="1" fill-rule="evenodd"/><path fill="#ffffff" d="M 26.574219 14.316406 C 30.394531 14.070312 32.621094 14.980469 34.828125 14.730469 C 35.121094 11.714844 33.476562 10.800781 30.90625 10.832031 C 28.164062 11.058594 26.835938 12.589844 26.574219 14.316406 " fill-opacity="1" fill-rule="evenodd"/><path fill="#ff914d" d="M 34.863281 15.171875 L 37.523438 17.511719 C 35.308594 18.03125 33.089844 17.15625 30.867188 14.882812 C 32.664062 15.054688 33.953125 15.214844 34.863281 15.171875 " fill-opacity="1" fill-rule="evenodd"/><path fill="#ffffff" d="M 34.21875 17.722656 L 34.464844 18.886719 C 34.742188 19.417969 34.6875 19.929688 33.875 19.558594 C 33.109375 19.535156 32.757812 19.394531 33.042969 19.007812 C 32.363281 19.363281 32.71875 19.769531 33.375 19.777344 L 33.304688 20.453125 L 32.1875 20.523438 C 32.328125 20.667969 32.617188 20.847656 33.0625 20.898438 C 32.960938 21.277344 32.625 21.417969 32.054688 21.320312 L 32.476562 21.597656 C 32.410156 22.527344 31.878906 22.757812 30.878906 22.296875 C 30.222656 22.074219 28.324219 21.027344 28.179688 19.761719 C 28.128906 19.664062 28.253906 18.988281 28.253906 18.988281 C 27.222656 20.253906 28.492188 21.726562 29.203125 22.167969 L 28.820312 23.414062 C 29.199219 23.257812 29.550781 22.925781 29.886719 22.421875 C 29.886719 22.421875 29.390625 23.828125 28.820312 24.40625 L 28.382812 23.5625 C 26.503906 22.105469 25.773438 20.792969 25.410156 19.253906 C 25.519531 18.488281 25.707031 18.011719 25.921875 17.320312 C 26.101562 17.496094 26.46875 17.679688 27.023438 17.871094 C 27.5625 18.828125 28.054688 18.917969 28.492188 18.144531 C 27.863281 18.476562 27.496094 18.304688 27.390625 17.628906 C 26.957031 14.9375 28.414062 14.308594 28.765625 16.382812 L 29.410156 16.511719 C 29.550781 16.242188 29.789062 16.109375 30.125 16.105469 L 30.292969 15.152344 C 31.449219 16.609375 32.757812 17.464844 34.21875 17.722656 " fill-opacity="1" fill-rule="evenodd"/><path fill="#ffffff" d="M 26.921875 33.277344 L 29.746094 33.089844 C 30.636719 33.097656 31.796875 33.257812 33.230469 33.578125 L 34.839844 35.648438 L 34.363281 36.714844 C 34.128906 36.964844 33.78125 37.207031 33.320312 37.433594 L 34.039062 36.136719 L 32.8125 34.527344 C 32.710938 34.421875 32.574219 34.476562 32.636719 34.640625 L 33.738281 36.214844 L 33.183594 37.457031 C 33.054688 37.765625 32.769531 37.996094 32.328125 38.148438 L 32.871094 36.636719 L 31.839844 35.265625 C 31.761719 35.222656 31.660156 35.25 31.714844 35.402344 L 32.570312 36.800781 L 32.152344 37.976562 C 31.980469 38.234375 31.675781 38.449219 31.238281 38.613281 L 31.632812 37.292969 L 30.960938 36.203125 C 30.863281 36.125 30.796875 36.183594 30.835938 36.339844 L 31.410156 37.445312 L 31.054688 38.542969 L 30.425781 39.007812 C 30.128906 39.078125 29.820312 39.0625 29.5 38.960938 L 30.1875 38.390625 L 30.378906 37.699219 L 29.777344 36.78125 C 29.25 36.683594 28.617188 36.4375 27.882812 36.042969 C 27.160156 35.945312 26.542969 35.960938 26.03125 36.089844 C 26.003906 35.140625 26.300781 34.203125 26.921875 33.277344 " fill-opacity="1" fill-rule="evenodd"/><path fill="#ffffff" d="M 35.957031 34.921875 L 37.238281 34.347656 C 37.832031 34.230469 38.257812 34.25 38.980469 34.191406 L 39.550781 33.515625 L 39.386719 32.207031 C 39.316406 31.730469 39.972656 31.433594 40.082031 32.078125 L 40.371094 33.46875 L 39.898438 34.511719 C 39.925781 34.601562 39.988281 34.664062 40.128906 34.554688 L 40.695312 33.445312 L 40.410156 31.824219 C 40.378906 31.195312 41.042969 31.210938 41.15625 31.6875 L 41.46875 33.445312 L 40.875 34.691406 C 40.878906 34.746094 41.015625 34.792969 41.109375 34.667969 L 41.691406 33.464844 L 41.46875 31.613281 C 41.425781 30.972656 42.070312 31.027344 42.15625 31.5625 L 42.476562 33.417969 L 41.949219 34.5625 C 42.003906 34.597656 42.050781 34.585938 42.101562 34.527344 L 42.714844 33.429688 L 42.375 31.527344 C 42.367188 31.042969 42.980469 30.980469 43.085938 31.578125 L 43.347656 33.429688 C 42.644531 34.746094 42.714844 34.855469 41.964844 34.875 C 41.550781 35.144531 41.308594 35.144531 41.027344 35.03125 C 40.644531 35.191406 40.269531 35.234375 39.835938 35.152344 C 39.652344 35.289062 37.972656 35.019531 37.449219 35.121094 C 37.144531 35.328125 36.261719 36.304688 36.261719 36.304688 C 35.992188 35.824219 35.890625 35.359375 35.957031 34.921875 " fill-opacity="1" fill-rule="evenodd"/><path fill="#ffffff" d="M 39.421875 30.777344 L 41.105469 29.828125 C 41.808594 29.808594 42.359375 29.714844 42.765625 29.539062 C 43.136719 29.605469 43.117188 30.683594 41.398438 30.605469 L 41.144531 30.800781 L 39.421875 30.777344 " fill-opacity="1" fill-rule="evenodd"/><path fill="#ffffff" d="M 24.753906 18.21875 C 24.378906 20.34375 25.488281 22.25 28.109375 24.167969 L 28.796875 26.554688 L 30.445312 23.832031 C 31.34375 25.335938 31.242188 28.363281 29.964844 32.445312 L 26.738281 32.394531 L 20.910156 31.683594 C 21.914062 28.589844 21.832031 24.882812 21.015625 23.496094 C 20.660156 27.773438 19.546875 30.671875 17.683594 32.1875 L 26.339844 33.253906 C 25.207031 35.058594 24.683594 36.65625 24.777344 38.046875 C 24.777344 38.046875 16.53125 39.101562 14.300781 38.679688 C 12.105469 38.128906 11.332031 35.179688 12.101562 31.722656 C 12.4375 30.242188 14.027344 26.398438 16.390625 22.238281 C 17.289062 20.65625 20.90625 19.808594 23.871094 19.265625 C 24.183594 18.550781 24.257812 18.453125 24.753906 18.21875 " fill-opacity="1" fill-rule="evenodd"/><path fill="#004aad" d="M 27.566406 32.707031 C 27.945312 31.980469 28.195312 30.535156 28.320312 28.367188 C 27.832031 30.730469 27.4375 32.191406 27.140625 32.746094 L 27.566406 32.707031 " fill-opacity="1" fill-rule="evenodd"/><path fill="#004aad" d="M 25.066406 34.882812 C 23.855469 36.945312 22.042969 37.792969 19.628906 37.433594 C 21.363281 37.144531 23.175781 36.292969 25.066406 34.882812 " fill-opacity="1" fill-rule="evenodd"/><path fill="#004aad" d="M 21.980469 34.949219 C 20.769531 37.011719 18.957031 37.859375 16.542969 37.5 C 18.28125 37.210938 20.09375 36.359375 21.980469 34.949219 " fill-opacity="1" fill-rule="evenodd"/><path fill="#004aad" d="M 19.5625 34.882812 C 18.351562 36.945312 16.539062 37.792969 14.125 37.433594 C 15.859375 37.144531 17.671875 36.292969 19.5625 34.882812 " fill-opacity="1" fill-rule="evenodd"/><path fill="#004aad" d="M 17.898438 32.042969 C 16.472656 31.996094 15.289062 32.363281 14.351562 33.152344 C 15.609375 32.613281 17.078125 32.300781 18.765625 32.21875 L 17.898438 32.042969 " fill-opacity="1" fill-rule="evenodd"/><path fill="#004aad" d="M 12.558594 34.1875 C 12.097656 35.953125 12.460938 36.980469 13.648438 37.261719 C 12.960938 36.777344 12.597656 35.75 12.558594 34.1875 " fill-opacity="1" fill-rule="evenodd"/><path fill="#004aad" d="M 28.042969 23.679688 L 25.695312 25.101562 C 24.339844 23.75 23.5625 21.082031 24.074219 18.375 C 22.667969 20.894531 24.144531 24.304688 25.605469 25.730469 C 27.132812 24.730469 28.128906 24.480469 28.589844 24.980469 L 28.042969 23.679688 " fill-opacity="1" fill-rule="evenodd"/><path fill="#004aad" d="M 28.375 16.816406 C 28.265625 16.042969 28.128906 15.667969 27.964844 15.699219 L 27.710938 16.3125 L 27.914062 16.171875 L 28.117188 16.507812 L 27.824219 16.886719 L 28.183594 16.835938 C 27.789062 17.167969 27.816406 17.425781 28.261719 17.605469 C 28.195312 17.226562 28.234375 16.960938 28.375 16.816406 " fill-opacity="1" fill-rule="evenodd"/><path fill="#004aad" d="M 30.167969 17.335938 C 30.242188 17.859375 30.65625 18.304688 31.417969 18.679688 C 30.617188 18.773438 30.144531 19.40625 30.003906 20.582031 C 30.011719 19.589844 30.183594 18.96875 30.515625 18.71875 C 30.152344 18.175781 30.035156 17.714844 30.167969 17.335938 " fill-opacity="1" fill-rule="evenodd"/><path fill="#004aad" d="M 33.890625 17.492188 C 33.585938 17.644531 33.152344 17.757812 32.589844 17.835938 C 32.277344 17.519531 31.578125 16.761719 31.484375 16.285156 L 33.890625 17.492188 " fill-opacity="1" fill-rule="evenodd"/><path fill="#ff914d" d="M 26.753906 36.753906 C 28.261719 36.617188 29.058594 37.378906 29.058594 38.691406 L 28.796875 38.933594 C 28.820312 37.675781 28.140625 36.945312 26.753906 36.753906 " fill-opacity="1" fill-rule="evenodd"/><path fill="#ff914d" d="M 28.597656 39.003906 L 28.351562 39.253906 C 27.9375 37.925781 27.1875 37.277344 26.09375 37.300781 C 27.167969 36.9375 28 37.503906 28.597656 39.003906 " fill-opacity="1" fill-rule="evenodd"/><path fill="#ff914d" d="M 28.171875 39.503906 L 27.996094 39.75 C 27.507812 38.589844 26.742188 37.945312 25.707031 37.816406 C 26.726562 37.53125 27.546875 38.09375 28.171875 39.503906 " fill-opacity="1" fill-rule="evenodd"/><path fill="#ff914d" d="M 25.316406 38.359375 C 26.398438 38.21875 27.226562 38.796875 27.792969 40.101562 L 27.574219 40.351562 C 27.066406 39.171875 26.390625 38.515625 25.316406 38.359375 " fill-opacity="1" fill-rule="evenodd"/><path fill="#ff914d" d="M 25.195312 38.832031 C 26.28125 38.820312 27.011719 39.425781 27.382812 40.652344 C 26.882812 39.664062 26.152344 39.058594 25.195312 38.832031 " fill-opacity="1" fill-rule="evenodd"/><path fill="#ff914d" d="M 24.742188 39.507812 C 25.875 39.265625 26.660156 39.816406 27.09375 41.164062 C 26.511719 40.167969 25.726562 39.613281 24.742188 39.507812 " fill-opacity="1" fill-rule="evenodd"/><path fill="#ff914d" d="M 24.433594 40.179688 C 25.503906 39.714844 26.359375 40.21875 26.992188 41.699219 C 26.28125 40.566406 25.425781 40.058594 24.433594 40.179688 " fill-opacity="1" fill-rule="evenodd"/><path fill="#ff914d" d="M 24.039062 40.875 C 25.011719 40.230469 25.941406 40.578125 26.824219 41.925781 C 25.925781 40.933594 24.996094 40.582031 24.039062 40.875 " fill-opacity="1" fill-rule="evenodd"/><path fill="#ff914d" d="M 23.839844 41.320312 C 24.8125 40.671875 25.742188 41.023438 26.625 42.367188 C 25.726562 41.378906 24.796875 41.027344 23.839844 41.320312 " fill-opacity="1" fill-rule="evenodd"/><path fill="#ff914d" d="M 23.691406 41.835938 C 24.667969 41.1875 25.59375 41.535156 26.476562 42.882812 C 25.578125 41.890625 24.648438 41.542969 23.691406 41.835938 " fill-opacity="1" fill-rule="evenodd"/><path fill="#ff914d" d="M 23.574219 42.667969 C 24.421875 41.863281 25.398438 42.046875 26.5 43.21875 C 25.441406 42.398438 24.464844 42.214844 23.574219 42.667969 " fill-opacity="1" fill-rule="evenodd"/><path fill="#ff914d" d="M 23.558594 43.289062 C 24.402344 42.484375 25.378906 42.667969 26.480469 43.839844 C 25.421875 43.019531 24.449219 42.835938 23.558594 43.289062 " fill-opacity="1" fill-rule="evenodd"/><path fill="#ff914d" d="M 23.59375 43.914062 C 24.441406 43.109375 25.414062 43.292969 26.519531 44.464844 C 25.460938 43.644531 24.484375 43.460938 23.59375 43.914062 " fill-opacity="1" fill-rule="evenodd"/><path fill="#ff914d" d="M 23.707031 44.800781 C 24.386719 43.847656 25.378906 43.839844 26.683594 44.78125 C 25.488281 44.179688 24.496094 44.183594 23.707031 44.800781 " fill-opacity="1" fill-rule="evenodd"/><path fill="#ff914d" d="M 23.800781 45.316406 C 24.476562 44.363281 25.46875 44.355469 26.777344 45.296875 C 25.582031 44.691406 24.589844 44.699219 23.800781 45.316406 " fill-opacity="1" fill-rule="evenodd"/><path fill="#ff914d" d="M 23.929688 45.773438 C 24.605469 44.820312 25.597656 44.8125 26.90625 45.753906 C 25.710938 45.152344 24.71875 45.15625 23.929688 45.773438 " fill-opacity="1" fill-rule="evenodd"/><path fill="#ff914d" d="M 24.058594 46.324219 C 24.738281 45.371094 25.730469 45.363281 27.035156 46.304688 C 25.839844 45.703125 24.847656 45.710938 24.058594 46.324219 " fill-opacity="1" fill-rule="evenodd"/><path fill="#ff914d" d="M 33.921875 33.019531 C 34.613281 33.664062 34.9375 34.34375 34.898438 35.058594 L 35.234375 34.925781 C 35.089844 33.863281 34.652344 33.226562 33.921875 33.019531 " fill-opacity="1" fill-rule="evenodd"/><path fill="#ff914d" d="M 34.5 32.585938 C 35.199219 33.070312 35.679688 33.785156 35.53125 34.808594 L 35.863281 34.675781 C 35.914062 33.550781 35.230469 32.792969 34.5 32.585938 " fill-opacity="1" fill-rule="evenodd"/><path fill="#ff914d" d="M 35.082031 32.351562 C 35.78125 32.835938 36.261719 33.550781 36.113281 34.578125 L 36.445312 34.445312 C 36.496094 33.320312 35.8125 32.5625 35.082031 32.351562 " fill-opacity="1" fill-rule="evenodd"/><path fill="#ff914d" d="M 35.664062 32.070312 C 36.363281 32.554688 36.84375 33.269531 36.695312 34.292969 L 37.027344 34.160156 C 37.078125 33.035156 36.394531 32.277344 35.664062 32.070312 " fill-opacity="1" fill-rule="evenodd"/><path fill="#ff914d" d="M 36.3125 31.921875 C 37.011719 32.402344 37.496094 33.117188 37.34375 34.144531 L 37.679688 34.011719 C 37.726562 32.886719 37.042969 32.128906 36.3125 31.921875 " fill-opacity="1" fill-rule="evenodd"/><path fill="#ff914d" d="M 36.871094 31.804688 C 37.542969 32.320312 37.988281 33.0625 37.785156 34.078125 L 38.125 33.960938 C 38.234375 32.839844 37.589844 32.050781 36.871094 31.804688 " fill-opacity="1" fill-rule="evenodd"/><path fill="#ff914d" d="M 37.617188 31.695312 C 38.253906 32.257812 38.644531 33.027344 38.371094 34.027344 L 38.71875 33.9375 C 38.90625 32.824219 38.316406 31.992188 37.617188 31.695312 " fill-opacity="1" fill-rule="evenodd"/><path fill="#ff914d" d="M 44.550781 30.949219 C 45.078125 31.613281 45.332031 32.441406 44.886719 33.375 L 45.246094 33.347656 C 45.621094 32.285156 45.191406 31.363281 44.550781 30.949219 " fill-opacity="1" fill-rule="evenodd"/><path fill="#ff914d" d="M 44.085938 30.984375 C 44.613281 31.648438 44.863281 32.472656 44.421875 33.410156 L 44.78125 33.378906 C 45.15625 32.320312 44.722656 31.394531 44.085938 30.984375 " fill-opacity="1" fill-rule="evenodd"/><path fill="#ff914d" d="M 43.667969 30.984375 C 44.195312 31.648438 44.449219 32.472656 44.003906 33.410156 L 44.363281 33.378906 C 44.738281 32.320312 44.308594 31.394531 43.667969 30.984375 " fill-opacity="1" fill-rule="evenodd"/><path fill="#ff914d" d="M 43.152344 30.964844 C 43.679688 31.632812 43.933594 32.457031 43.488281 33.394531 L 43.847656 33.363281 C 44.222656 32.300781 43.792969 31.378906 43.152344 30.964844 " fill-opacity="1" fill-rule="evenodd"/><path fill="#ffffff" d="M 37.121094 36.085938 L 37.121094 37.617188 C 36.761719 37.515625 36.261719 37.105469 35.613281 36.390625 L 36.703125 37.015625 L 37.121094 36.085938 " fill-opacity="1" fill-rule="evenodd"/><path fill="#ffffff" d="M 14.835938 39.847656 L 13.667969 46.667969 L 18.394531 46.359375 L 15.527344 46.203125 L 17 44.230469 L 15.664062 44.660156 L 16.523438 41.976562 L 15.628906 42.203125 L 16.691406 39.746094 L 14.835938 39.847656 " fill-opacity="1" fill-rule="evenodd"/><path fill="#ff914d" d="M 28.757812 36.882812 C 29.238281 37.21875 29.480469 37.738281 29.488281 38.445312 L 29.796875 38.222656 C 29.71875 37.367188 29.371094 36.917969 28.757812 36.882812 " fill-opacity="1" fill-rule="evenodd"/><path fill="#ff914d" d="M 33.429688 33.230469 C 33.96875 33.492188 34.382812 34.082031 34.671875 35.007812 C 34.207031 34.261719 33.726562 33.679688 33.230469 33.257812 L 33.429688 33.230469 " fill-opacity="1" fill-rule="evenodd"/><path fill="#ff914d" d="M 38.324219 31.507812 L 38.59375 31.507812 L 38.875 32.050781 Z M 38.324219 31.507812 " fill-opacity="1" fill-rule="evenodd"/><path fill="#ff914d" d="M 38.917969 31.371094 L 39.148438 31.371094 L 39.242188 31.707031 Z M 38.917969 31.371094 " fill-opacity="1" fill-rule="evenodd"/><path fill="#ff914d" d="M 38.992188 32.96875 L 38.917969 33.824219 L 39.105469 33.511719 Z M 38.992188 32.96875 " fill-opacity="1" fill-rule="evenodd"/><path fill="#004aad" d="M 30.496094 23.515625 C 30.671875 24.363281 30.582031 25.195312 30.226562 26.007812 C 29.941406 25.398438 29.605469 24.992188 29.210938 24.796875 L 30.496094 23.515625 " fill-opacity="1" fill-rule="evenodd"/><path fill="#ff914d" d="M 33.371094 11.625 C 34.222656 12.644531 34.542969 13.582031 34.332031 14.429688 L 30.523438 14.144531 C 31.542969 13.480469 32.492188 12.640625 33.371094 11.625 " fill-opacity="1" fill-rule="evenodd"/><path fill="#ff914d" d="M 33.710938 17.714844 L 33.847656 18.875 C 33.679688 18.796875 33.425781 18.765625 33.078125 18.777344 L 33.710938 17.714844 " fill-opacity="1" fill-rule="evenodd"/><path fill="#ff914d" d="M 32.664062 19.097656 C 32.539062 19.246094 32.523438 19.382812 32.613281 19.507812 C 32.332031 19.652344 32.03125 19.660156 31.699219 19.519531 C 32.03125 19.429688 32.351562 19.289062 32.664062 19.097656 " fill-opacity="1" fill-rule="evenodd"/><path fill="#ff914d" d="M 27.253906 18.550781 L 26.738281 21.789062 L 26.347656 20.742188 Z M 27.253906 18.550781 " fill-opacity="1" fill-rule="evenodd"/><path fill="#ff914d" d="M 21.480469 31.449219 L 26.898438 31.816406 L 27.625 29.09375 L 26.097656 30.851562 L 25.773438 29.789062 L 24.460938 30.8125 L 24.308594 30.066406 L 21.480469 31.449219 " fill-opacity="1" fill-rule="evenodd"/><path fill="#ff914d" d="M 19.578125 27.078125 C 19.503906 29.382812 18.746094 30.902344 17.3125 31.632812 C 16.417969 31.628906 15.53125 31.867188 14.652344 32.347656 C 16.660156 30.996094 18.304688 29.238281 19.578125 27.078125 " fill-opacity="1" fill-rule="evenodd"/><path fill="#e98321" d="M 79.699219 44.707031 L 81.164062 44.707031 C 81.261719 44.707031 81.339844 44.628906 81.339844 44.53125 L 81.339844 43.066406 C 81.339844 42.96875 81.261719 42.890625 81.164062 42.890625 L 79.699219 42.890625 C 79.601562 42.890625 79.523438 42.96875 79.523438 43.066406 L 79.523438 44.53125 C 79.523438 44.628906 79.601562 44.707031 79.699219 44.707031 " fill-opacity="1" fill-rule="nonzero"/><path fill="#e98321" d="M 77.347656 44.707031 L 78.8125 44.707031 C 78.910156 44.707031 78.988281 44.628906 78.988281 44.53125 L 78.988281 43.066406 C 78.988281 42.96875 78.910156 42.890625 78.8125 42.890625 L 77.347656 42.890625 C 77.25 42.890625 77.171875 42.96875 77.171875 43.066406 L 77.171875 44.53125 C 77.171875 44.628906 77.25 44.707031 77.347656 44.707031 " fill-opacity="1" fill-rule="nonzero"/><path fill="#e98321" d="M 79.699219 46.964844 L 81.164062 46.964844 C 81.261719 46.964844 81.339844 46.886719 81.339844 46.789062 L 81.339844 45.324219 C 81.339844 45.226562 81.261719 45.148438 81.164062 45.148438 L 79.699219 45.148438 C 79.601562 45.148438 79.523438 45.226562 79.523438 45.324219 L 79.523438 46.789062 C 79.523438 46.886719 79.601562 46.964844 79.699219 46.964844 " fill-opacity="1" fill-rule="nonzero"/><path fill="#e98321" d="M 77.347656 46.964844 L 78.8125 46.964844 C 78.910156 46.964844 78.988281 46.886719 78.988281 46.789062 L 78.988281 45.324219 C 78.988281 45.226562 78.910156 45.148438 78.8125 45.148438 L 77.347656 45.148438 C 77.25 45.148438 77.171875 45.226562 77.171875 45.324219 L 77.171875 46.789062 C 77.171875 46.886719 77.25 46.964844 77.347656 46.964844 " fill-opacity="1" fill-rule="nonzero"/><path fill="#e98321" d="M 63.691406 44.523438 L 64.582031 44.523438 C 64.644531 44.523438 64.691406 44.472656 64.691406 44.414062 L 64.691406 43.523438 C 64.691406 43.464844 64.644531 43.414062 64.582031 43.414062 L 63.691406 43.414062 C 63.632812 43.414062 63.585938 43.464844 63.585938 43.523438 L 63.585938 44.414062 C 63.585938 44.472656 63.632812 44.523438 63.691406 44.523438 " fill-opacity="1" fill-rule="nonzero"/><path fill="#e98321" d="M 62.261719 44.523438 L 63.152344 44.523438 C 63.210938 44.523438 63.261719 44.472656 63.261719 44.414062 L 63.261719 43.523438 C 63.261719 43.464844 63.210938 43.414062 63.152344 43.414062 L 62.261719 43.414062 C 62.199219 43.414062 62.152344 43.464844 62.152344 43.523438 L 62.152344 44.414062 C 62.152344 44.472656 62.199219 44.523438 62.261719 44.523438 " fill-opacity="1" fill-rule="nonzero"/><path fill="#e98321" d="M 63.691406 45.898438 L 64.582031 45.898438 C 64.644531 45.898438 64.691406 45.847656 64.691406 45.789062 L 64.691406 44.898438 C 64.691406 44.839844 64.644531 44.789062 64.582031 44.789062 L 63.691406 44.789062 C 63.632812 44.789062 63.585938 44.839844 63.585938 44.898438 L 63.585938 45.789062 C 63.585938 45.847656 63.632812 45.898438 63.691406 45.898438 " fill-opacity="1" fill-rule="nonzero"/><path fill="#e98321" d="M 62.261719 45.898438 L 63.152344 45.898438 C 63.210938 45.898438 63.261719 45.847656 63.261719 45.789062 L 63.261719 44.898438 C 63.261719 44.839844 63.210938 44.789062 63.152344 44.789062 L 62.261719 44.789062 C 62.199219 44.789062 62.152344 44.839844 62.152344 44.898438 L 62.152344 45.789062 C 62.152344 45.847656 62.199219 45.898438 62.261719 45.898438 " fill-opacity="1" fill-rule="nonzero"/><g clip-path="url(#025d4284cb)"><path fill="#26569a" d="M 51.292969 46.878906 L 56.445312 39.394531 L 61.925781 39.394531 L 56.773438 46.878906 Z M 70.007812 46.625 L 64.457031 38.5625 L 66.574219 35.488281 L 77.671875 35.488281 Z M 63.496094 40.011719 L 68.136719 46.757812 L 58.851562 46.757812 Z M 49.042969 48.058594 C 49.183594 48.324219 49.457031 48.429688 49.757812 48.429688 L 70.339844 48.371094 C 70.605469 48.371094 70.855469 48.242188 71.003906 48.023438 L 79.207031 36.105469 L 87.410156 48.023438 C 87.566406 48.25 87.820312 48.371094 88.078125 48.371094 C 88.234375 48.371094 88.394531 48.324219 88.535156 48.230469 C 88.902344 47.976562 88.996094 47.472656 88.742188 47.105469 L 79.878906 34.234375 C 79.859375 34.203125 79.835938 34.171875 79.8125 34.144531 C 79.789062 34.121094 79.765625 34.09375 79.738281 34.074219 C 79.597656 33.949219 79.414062 33.875 79.210938 33.875 L 66.148438 33.875 C 65.882812 33.875 65.632812 34.003906 65.484375 34.222656 L 63.035156 37.777344 L 56.019531 37.777344 C 55.753906 37.777344 55.503906 37.910156 55.355469 38.128906 L 49.09375 47.226562 C 48.921875 47.472656 48.902344 47.792969 49.042969 48.058594 " fill-opacity="1" fill-rule="nonzero"/></g><path fill="#e98321" d="M 77.671875 35.488281 L 66.574219 35.488281 L 64.457031 38.5625 L 70.007812 46.625 L 77.671875 35.488281 " fill-opacity="1" fill-rule="nonzero"/><path fill="#e98321" d="M 56.773438 46.878906 L 61.925781 39.394531 L 56.445312 39.394531 L 51.292969 46.878906 L 56.773438 46.878906 " fill-opacity="1" fill-rule="nonzero"/><g fill="#e98321" fill-opacity="1"><g transform="translate(39.42541, 24.591015)"><g><path d="M 3.796875 -8.765625 C 4.265625 -8.765625 4.71875 -8.695312 5.15625 -8.5625 C 5.601562 -8.425781 5.9375 -8.289062 6.15625 -8.15625 L 6.46875 -7.953125 L 5.671875 -6.390625 C 5.609375 -6.429688 5.519531 -6.484375 5.40625 -6.546875 C 5.300781 -6.617188 5.09375 -6.707031 4.78125 -6.8125 C 4.476562 -6.925781 4.195312 -6.984375 3.9375 -6.984375 C 3.601562 -6.984375 3.347656 -6.910156 3.171875 -6.765625 C 2.992188 -6.628906 2.90625 -6.441406 2.90625 -6.203125 C 2.90625 -6.085938 2.945312 -5.976562 3.03125 -5.875 C 3.113281 -5.78125 3.253906 -5.675781 3.453125 -5.5625 C 3.660156 -5.445312 3.84375 -5.351562 4 -5.28125 C 4.15625 -5.207031 4.390625 -5.101562 4.703125 -4.96875 C 5.265625 -4.726562 5.738281 -4.40625 6.125 -4 C 6.519531 -3.59375 6.71875 -3.132812 6.71875 -2.625 C 6.71875 -2.125 6.628906 -1.6875 6.453125 -1.3125 C 6.273438 -0.945312 6.03125 -0.660156 5.71875 -0.453125 C 5.414062 -0.242188 5.078125 -0.09375 4.703125 0 C 4.328125 0.101562 3.914062 0.15625 3.46875 0.15625 C 3.09375 0.15625 2.722656 0.113281 2.359375 0.03125 C 2.003906 -0.0390625 1.703125 -0.132812 1.453125 -0.25 C 1.210938 -0.363281 0.992188 -0.472656 0.796875 -0.578125 C 0.609375 -0.691406 0.46875 -0.785156 0.375 -0.859375 L 0.234375 -0.984375 L 1.21875 -2.625 C 1.300781 -2.5625 1.414062 -2.472656 1.5625 -2.359375 C 1.707031 -2.253906 1.96875 -2.109375 2.34375 -1.921875 C 2.71875 -1.742188 3.046875 -1.65625 3.328125 -1.65625 C 4.160156 -1.65625 4.578125 -1.9375 4.578125 -2.5 C 4.578125 -2.625 4.546875 -2.734375 4.484375 -2.828125 C 4.421875 -2.929688 4.316406 -3.03125 4.171875 -3.125 C 4.023438 -3.226562 3.890625 -3.3125 3.765625 -3.375 C 3.648438 -3.4375 3.460938 -3.523438 3.203125 -3.640625 C 2.941406 -3.765625 2.75 -3.859375 2.625 -3.921875 C 2.101562 -4.179688 1.695312 -4.503906 1.40625 -4.890625 C 1.125 -5.273438 0.984375 -5.691406 0.984375 -6.140625 C 0.984375 -6.910156 1.269531 -7.539062 1.84375 -8.03125 C 2.414062 -8.519531 3.066406 -8.765625 3.796875 -8.765625 Z M 3.796875 -8.765625 "/></g></g></g><g fill="#e98321" fill-opacity="1"><g transform="translate(46.435138, 24.591015)"><g><path d="M 1.125 -0.640625 C 0.53125 -1.171875 0.234375 -1.847656 0.234375 -2.671875 C 0.234375 -3.492188 0.539062 -4.171875 1.15625 -4.703125 C 1.78125 -5.242188 2.550781 -5.515625 3.46875 -5.515625 C 4.363281 -5.515625 5.117188 -5.242188 5.734375 -4.703125 C 6.347656 -4.171875 6.65625 -3.492188 6.65625 -2.671875 C 6.65625 -1.847656 6.351562 -1.171875 5.75 -0.640625 C 5.15625 -0.109375 4.394531 0.15625 3.46875 0.15625 C 2.507812 0.15625 1.726562 -0.109375 1.125 -0.640625 Z M 2.5625 -3.578125 C 2.320312 -3.335938 2.203125 -3.035156 2.203125 -2.671875 C 2.203125 -2.304688 2.316406 -2.003906 2.546875 -1.765625 C 2.773438 -1.535156 3.078125 -1.421875 3.453125 -1.421875 C 3.816406 -1.421875 4.113281 -1.535156 4.34375 -1.765625 C 4.582031 -2.003906 4.703125 -2.304688 4.703125 -2.671875 C 4.703125 -3.035156 4.582031 -3.335938 4.34375 -3.578125 C 4.101562 -3.816406 3.804688 -3.9375 3.453125 -3.9375 C 3.097656 -3.9375 2.800781 -3.816406 2.5625 -3.578125 Z M 2.5625 -3.578125 "/></g></g></g><g fill="#e98321" fill-opacity="1"><g transform="translate(53.330123, 24.591015)"><g><path d="M 0.625 0 L 0.625 -8.96875 L 2.46875 -8.96875 L 2.46875 0 Z M 0.625 0 "/></g></g></g><g fill="#e98321" fill-opacity="1"><g transform="translate(56.428172, 24.591015)"><g><path d="M 2.375 -5.359375 L 2.375 -2.8125 C 2.375 -2.28125 2.453125 -1.898438 2.609375 -1.671875 C 2.765625 -1.453125 3.035156 -1.34375 3.421875 -1.34375 C 3.804688 -1.34375 4.078125 -1.453125 4.234375 -1.671875 C 4.398438 -1.898438 4.484375 -2.28125 4.484375 -2.8125 L 4.484375 -5.359375 L 6.328125 -5.359375 L 6.328125 -2.359375 C 6.328125 -1.460938 6.09375 -0.816406 5.625 -0.421875 C 5.164062 -0.0351562 4.429688 0.15625 3.421875 0.15625 C 2.410156 0.15625 1.671875 -0.0351562 1.203125 -0.421875 C 0.742188 -0.816406 0.515625 -1.460938 0.515625 -2.359375 L 0.515625 -5.359375 Z M 2.375 -5.359375 "/></g></g></g><g fill="#e98321" fill-opacity="1"><g transform="translate(63.271, 24.591015)"><g><path d="M 0.9375 -5.359375 L 0.9375 -7.34375 L 2.78125 -7.34375 L 2.78125 -5.359375 L 3.90625 -5.359375 L 3.90625 -3.953125 L 2.78125 -3.953125 L 2.78125 -2.25 C 2.78125 -1.75 2.921875 -1.5 3.203125 -1.5 C 3.273438 -1.5 3.347656 -1.515625 3.421875 -1.546875 C 3.492188 -1.578125 3.550781 -1.601562 3.59375 -1.625 L 3.65625 -1.671875 L 4.125 -0.171875 C 3.726562 0.046875 3.273438 0.15625 2.765625 0.15625 C 2.421875 0.15625 2.125 0.0976562 1.875 -0.015625 C 1.625 -0.140625 1.429688 -0.304688 1.296875 -0.515625 C 1.171875 -0.722656 1.078125 -0.9375 1.015625 -1.15625 C 0.960938 -1.382812 0.9375 -1.628906 0.9375 -1.890625 L 0.9375 -3.953125 L 0.171875 -3.953125 L 0.171875 -5.359375 Z M 0.9375 -5.359375 "/></g></g></g><g fill="#e98321" fill-opacity="1"><g transform="translate(67.3913, 24.591015)"><g><path d="M 0.796875 -8.328125 C 1.015625 -8.546875 1.273438 -8.65625 1.578125 -8.65625 C 1.878906 -8.65625 2.132812 -8.546875 2.34375 -8.328125 C 2.5625 -8.117188 2.671875 -7.863281 2.671875 -7.5625 C 2.671875 -7.269531 2.5625 -7.015625 2.34375 -6.796875 C 2.132812 -6.578125 1.878906 -6.46875 1.578125 -6.46875 C 1.273438 -6.46875 1.015625 -6.578125 0.796875 -6.796875 C 0.585938 -7.015625 0.484375 -7.269531 0.484375 -7.5625 C 0.484375 -7.863281 0.585938 -8.117188 0.796875 -8.328125 Z M 0.625 -5.359375 L 0.625 0 L 2.46875 0 L 2.46875 -5.359375 Z M 0.625 -5.359375 "/></g></g></g><g fill="#e98321" fill-opacity="1"><g transform="translate(70.541506, 24.591015)"><g><path d="M 1.125 -0.640625 C 0.53125 -1.171875 0.234375 -1.847656 0.234375 -2.671875 C 0.234375 -3.492188 0.539062 -4.171875 1.15625 -4.703125 C 1.78125 -5.242188 2.550781 -5.515625 3.46875 -5.515625 C 4.363281 -5.515625 5.117188 -5.242188 5.734375 -4.703125 C 6.347656 -4.171875 6.65625 -3.492188 6.65625 -2.671875 C 6.65625 -1.847656 6.351562 -1.171875 5.75 -0.640625 C 5.15625 -0.109375 4.394531 0.15625 3.46875 0.15625 C 2.507812 0.15625 1.726562 -0.109375 1.125 -0.640625 Z M 2.5625 -3.578125 C 2.320312 -3.335938 2.203125 -3.035156 2.203125 -2.671875 C 2.203125 -2.304688 2.316406 -2.003906 2.546875 -1.765625 C 2.773438 -1.535156 3.078125 -1.421875 3.453125 -1.421875 C 3.816406 -1.421875 4.113281 -1.535156 4.34375 -1.765625 C 4.582031 -2.003906 4.703125 -2.304688 4.703125 -2.671875 C 4.703125 -3.035156 4.582031 -3.335938 4.34375 -3.578125 C 4.101562 -3.816406 3.804688 -3.9375 3.453125 -3.9375 C 3.097656 -3.9375 2.800781 -3.816406 2.5625 -3.578125 Z M 2.5625 -3.578125 "/></g></g></g><g fill="#e98321" fill-opacity="1"><g transform="translate(77.436491, 24.591015)"><g><path d="M 0.625 0 L 0.625 -5.359375 L 2.46875 -5.359375 L 2.46875 -4.796875 L 2.5 -4.796875 C 2.976562 -5.273438 3.488281 -5.515625 4.03125 -5.515625 C 4.289062 -5.515625 4.550781 -5.476562 4.8125 -5.40625 C 5.070312 -5.332031 5.320312 -5.222656 5.5625 -5.078125 C 5.800781 -4.929688 5.992188 -4.722656 6.140625 -4.453125 C 6.296875 -4.191406 6.375 -3.882812 6.375 -3.53125 L 6.375 0 L 4.53125 0 L 4.53125 -3.03125 C 4.53125 -3.300781 4.441406 -3.539062 4.265625 -3.75 C 4.085938 -3.96875 3.851562 -4.078125 3.5625 -4.078125 C 3.289062 -4.078125 3.039062 -3.96875 2.8125 -3.75 C 2.582031 -3.53125 2.46875 -3.289062 2.46875 -3.03125 L 2.46875 0 Z M 0.625 0 "/></g></g></g><g clip-path="url(#a3e1fd3639)"><g fill="#e98321" fill-opacity="1"><g transform="translate(84.331476, 24.591015)"><g><path d="M 2.953125 -5.515625 C 3.253906 -5.515625 3.554688 -5.476562 3.859375 -5.40625 C 4.160156 -5.332031 4.382812 -5.265625 4.53125 -5.203125 L 4.75 -5.09375 L 4.140625 -3.875 C 3.722656 -4.101562 3.328125 -4.21875 2.953125 -4.21875 C 2.742188 -4.21875 2.59375 -4.191406 2.5 -4.140625 C 2.414062 -4.097656 2.375 -4.015625 2.375 -3.890625 C 2.375 -3.859375 2.378906 -3.828125 2.390625 -3.796875 C 2.398438 -3.773438 2.414062 -3.75 2.4375 -3.71875 C 2.457031 -3.695312 2.472656 -3.675781 2.484375 -3.65625 C 2.503906 -3.644531 2.535156 -3.628906 2.578125 -3.609375 C 2.617188 -3.585938 2.648438 -3.570312 2.671875 -3.5625 C 2.703125 -3.550781 2.742188 -3.535156 2.796875 -3.515625 C 2.847656 -3.492188 2.890625 -3.476562 2.921875 -3.46875 C 2.953125 -3.457031 3 -3.441406 3.0625 -3.421875 C 3.125 -3.398438 3.175781 -3.382812 3.21875 -3.375 C 3.425781 -3.3125 3.609375 -3.242188 3.765625 -3.171875 C 3.929688 -3.097656 4.101562 -2.992188 4.28125 -2.859375 C 4.457031 -2.722656 4.59375 -2.554688 4.6875 -2.359375 C 4.789062 -2.160156 4.84375 -1.929688 4.84375 -1.671875 C 4.84375 -0.453125 4 0.15625 2.3125 0.15625 C 1.925781 0.15625 1.5625 0.0976562 1.21875 -0.015625 C 0.875 -0.140625 0.625 -0.257812 0.46875 -0.375 L 0.234375 -0.5625 L 0.984375 -1.828125 C 1.046875 -1.773438 1.117188 -1.71875 1.203125 -1.65625 C 1.296875 -1.59375 1.460938 -1.5 1.703125 -1.375 C 1.941406 -1.257812 2.144531 -1.203125 2.3125 -1.203125 C 2.695312 -1.203125 2.890625 -1.332031 2.890625 -1.59375 C 2.890625 -1.71875 2.835938 -1.8125 2.734375 -1.875 C 2.640625 -1.9375 2.476562 -2.007812 2.25 -2.09375 C 2.019531 -2.175781 1.835938 -2.253906 1.703125 -2.328125 C 1.367188 -2.503906 1.101562 -2.703125 0.90625 -2.921875 C 0.707031 -3.140625 0.609375 -3.425781 0.609375 -3.78125 C 0.609375 -4.332031 0.816406 -4.757812 1.234375 -5.0625 C 1.660156 -5.363281 2.234375 -5.515625 2.953125 -5.515625 Z M 2.953125 -5.515625 "/></g></g></g></g><g clip-path="url(#690add5e59)"><path stroke-linecap="butt" transform="matrix(0.318203, 0, 0, 0.318203, 38.695718, 14.265502)" fill="none" stroke-linejoin="miter" d="M 12.777995 3.44993 C 14.238834 3.44993 15.675121 3.670897 17.07458 4.088279 C 18.474039 4.517938 19.517495 4.947596 20.192673 5.352703 L 21.174749 6.015604 L 18.68273 10.925987 C 18.486315 10.803227 18.203968 10.631364 17.860241 10.422673 C 17.504238 10.213981 16.853613 9.94391 15.896088 9.587908 C 14.938564 9.244181 14.042419 9.060041 13.207654 9.060041 C 12.176474 9.060041 11.390812 9.281009 10.826118 9.722943 C 10.2737 10.164877 9.991353 10.754123 9.991353 11.490681 C 9.991353 11.858959 10.126389 12.202686 10.384184 12.521861 C 10.641979 12.841036 11.096189 13.172487 11.734539 13.540765 C 12.360613 13.896768 12.925307 14.191391 13.404069 14.400082 C 13.882831 14.621049 14.631665 14.9525 15.626017 15.394435 C 17.381479 16.130992 18.86687 17.149896 20.106741 18.426596 C 21.346613 19.703295 21.96041 21.151858 21.96041 22.772284 C 21.96041 24.319055 21.678064 25.681686 21.125645 26.835626 C 20.560952 27.989566 19.799842 28.897986 18.817766 29.560888 C 17.847965 30.211514 16.779957 30.702552 15.601465 31.021727 C 14.422974 31.328626 13.133998 31.488213 11.759091 31.488213 C 10.580599 31.488213 9.426659 31.365453 8.284996 31.13221 C 7.155608 30.886691 6.198083 30.592068 5.424698 30.236065 C 4.663588 29.867787 3.976135 29.511784 3.362337 29.168057 C 2.760815 28.812055 2.306605 28.517432 2.024258 28.284188 L 1.594599 27.91591 L 4.675864 22.735456 C 4.945935 22.956424 5.301938 23.238771 5.756149 23.582497 C 6.222635 23.913948 7.032848 24.368159 8.199064 24.945128 C 9.377556 25.509822 10.408736 25.792169 11.304881 25.792169 C 13.907383 25.792169 15.208635 24.908301 15.208635 23.128287 C 15.208635 22.760008 15.110427 22.416282 14.926288 22.097107 C 14.742148 21.777932 14.410698 21.471033 13.944211 21.151858 C 13.465449 20.832683 13.060342 20.574888 12.692064 20.390749 C 12.336061 20.206609 11.746815 19.924262 10.924326 19.543708 C 10.101837 19.163153 9.500315 18.86853 9.107485 18.672115 C 7.462506 17.861902 6.198083 16.855273 5.301938 15.639954 C 4.405793 14.424634 3.963859 13.123383 3.963859 11.723924 C 3.963859 9.293285 4.860004 7.30458 6.652293 5.770085 C 8.444583 4.223315 10.482392 3.44993 12.777995 3.44993 Z M 26.428858 28.996194 C 24.562913 27.33894 23.629941 25.215199 23.629941 22.612697 C 23.629941 20.010194 24.599741 17.874178 26.539342 16.192372 C 28.491219 14.522842 30.897306 13.688077 33.757604 13.688077 C 36.581074 13.688077 38.950334 14.522842 40.889935 16.216924 C 42.81726 17.89873 43.78706 20.02247 43.78706 22.612697 C 43.78706 25.190648 42.841812 27.314388 40.951314 28.983918 C 39.073093 30.653448 36.667006 31.488213 33.757604 31.488213 C 30.749995 31.488213 28.294804 30.653448 26.428858 28.996194 Z M 30.921858 19.752399 C 30.160749 20.488956 29.79247 21.446481 29.79247 22.612697 C 29.79247 23.766637 30.148473 24.711885 30.872755 25.448443 C 31.597036 26.172724 32.554561 26.541003 33.733052 26.541003 C 34.86244 26.541003 35.795413 26.172724 36.53197 25.423891 C 37.256252 24.675057 37.62453 23.742085 37.62453 22.600421 C 37.62453 21.446481 37.256252 20.488956 36.495142 19.752399 C 35.746309 19.015842 34.825612 18.635287 33.733052 18.635287 C 32.61594 18.635287 31.670692 19.015842 30.921858 19.752399 Z M 46.512322 30.997175 L 46.512322 2.799304 L 52.31885 2.799304 L 52.31885 30.997175 Z M 61.722232 14.179115 L 61.722232 22.183038 C 61.722232 23.840292 61.967751 25.018784 62.471065 25.718514 C 62.974379 26.418243 63.833696 26.774246 65.024464 26.774246 C 66.239784 26.774246 67.086825 26.418243 67.590139 25.718514 C 68.093453 25.018784 68.338972 23.840292 68.338972 22.183038 L 68.338972 14.179115 L 74.145499 14.179115 L 74.145499 23.582497 C 74.145499 26.393691 73.421218 28.406948 71.960379 29.634544 C 70.511816 30.874415 68.203937 31.488213 65.024464 31.488213 C 61.869543 31.488213 59.549388 30.874415 58.100825 29.634544 C 56.639986 28.406948 55.915705 26.393691 55.915705 23.582497 L 55.915705 14.179115 Z M 78.736707 14.179115 L 78.736707 7.918378 L 84.543234 7.918378 L 84.543234 14.179115 L 88.078709 14.179115 L 88.078709 18.610735 L 84.543234 18.610735 L 84.543234 23.950776 C 84.543234 25.497546 84.972893 26.270932 85.844485 26.270932 C 86.065453 26.270932 86.298696 26.234104 86.531939 26.148172 C 86.777458 26.06224 86.961597 25.964033 87.096633 25.890377 L 87.293048 25.755342 L 88.729335 30.444757 C 87.489464 31.144486 86.065453 31.488213 84.469578 31.488213 C 83.377018 31.488213 82.444046 31.304074 81.646109 30.923519 C 80.860447 30.530688 80.271201 30.015098 79.866095 29.376749 C 79.460988 28.726123 79.166365 28.050945 78.994502 27.33894 C 78.822639 26.626934 78.736707 25.878101 78.736707 25.067888 L 78.736707 18.610735 L 76.306068 18.610735 L 76.306068 14.179115 Z M 91.258182 4.800285 C 91.93336 4.125107 92.743573 3.78138 93.676545 3.78138 C 94.621794 3.78138 95.432007 4.125107 96.107185 4.800285 C 96.794638 5.475462 97.126089 6.285675 97.126089 7.230924 C 97.126089 8.176173 96.794638 8.97411 96.107185 9.661563 C 95.432007 10.324465 94.621794 10.668192 93.676545 10.668192 C 92.743573 10.668192 91.93336 10.324465 91.258182 9.661563 C 90.570729 8.97411 90.239278 8.176173 90.239278 7.230924 C 90.239278 6.285675 90.570729 5.475462 91.258182 4.800285 Z M 90.705764 14.179115 L 90.705764 30.997175 L 96.500015 30.997175 L 96.500015 14.179115 Z M 102.183783 28.996194 C 100.317838 27.33894 99.384865 25.215199 99.384865 22.612697 C 99.384865 20.010194 100.354665 17.874178 102.294267 16.192372 C 104.246144 14.522842 106.652231 13.688077 109.512529 13.688077 C 112.335999 13.688077 114.705258 14.522842 116.644859 16.216924 C 118.58446 17.89873 119.554261 20.02247 119.554261 22.612697 C 119.554261 25.190648 118.609012 27.314388 116.718515 28.983918 C 114.828018 30.653448 112.42193 31.488213 109.512529 31.488213 C 106.504919 31.488213 104.062004 30.653448 102.183783 28.996194 Z M 106.676783 19.752399 C 105.927949 20.488956 105.547395 21.446481 105.547395 22.612697 C 105.547395 23.766637 105.903398 24.711885 106.627679 25.448443 C 107.35196 26.172724 108.309485 26.541003 109.487977 26.541003 C 110.617365 26.541003 111.562613 26.172724 112.286895 25.423891 C 113.023452 24.675057 113.379455 23.742085 113.379455 22.600421 C 113.379455 21.446481 113.011176 20.488956 112.250067 19.752399 C 111.501234 19.015842 110.580537 18.635287 109.487977 18.635287 C 108.370865 18.635287 107.437892 19.015842 106.676783 19.752399 Z M 122.267247 30.997175 L 122.267247 14.179115 L 128.073774 14.179115 L 128.073774 15.946853 L 128.135154 15.946853 C 129.645096 14.43691 131.253247 13.688077 132.959605 13.688077 C 133.782094 13.688077 134.616859 13.79856 135.427072 14.007252 C 136.249561 14.228219 137.035222 14.571946 137.796331 15.026156 C 138.545165 15.492642 139.158962 16.143268 139.637725 16.978033 C 140.104211 17.825074 140.337454 18.80715 140.337454 19.924262 L 140.337454 30.997175 L 134.530927 30.997175 L 134.530927 21.495585 C 134.530927 20.611716 134.24858 19.850607 133.696162 19.199981 C 133.131468 18.549355 132.407187 18.217905 131.511042 18.217905 C 130.639449 18.217905 129.841512 18.549355 129.141782 19.236809 C 128.429777 19.911987 128.073774 20.66082 128.073774 21.495585 L 128.073774 30.997175 Z M 151.250779 13.688077 C 152.208304 13.688077 153.153552 13.79856 154.098801 14.007252 C 155.044049 14.228219 155.743779 14.449186 156.197989 14.670153 L 156.885443 15.001604 L 154.98267 18.794875 C 153.669142 18.095145 152.429271 17.751418 151.250779 17.751418 C 150.587877 17.751418 150.121391 17.825074 149.85132 17.972385 C 149.581249 18.107421 149.446213 18.377492 149.446213 18.770323 C 149.446213 18.856254 149.458489 18.942186 149.470765 19.028118 C 149.495317 19.114049 149.544421 19.199981 149.605801 19.285913 C 149.679457 19.359568 149.740836 19.420948 149.78994 19.470052 C 149.839044 19.531432 149.937252 19.592812 150.060011 19.654191 C 150.195047 19.715571 150.293254 19.764675 150.379186 19.801503 C 150.452842 19.838331 150.575601 19.887435 150.747465 19.948814 C 150.931604 20.02247 151.054364 20.059298 151.140295 20.096126 C 151.238503 20.132954 151.385815 20.182058 151.594506 20.243437 C 151.803197 20.317093 151.962784 20.353921 152.073268 20.378473 C 152.748446 20.574888 153.337692 20.795855 153.841006 21.029099 C 154.34432 21.274618 154.872186 21.606068 155.424604 22.023451 C 155.989298 22.428557 156.418956 22.956424 156.725855 23.594773 C 157.032754 24.220847 157.180066 24.945128 157.180066 25.755342 C 157.180066 29.573164 154.528459 31.488213 149.21297 31.488213 C 148.009927 31.488213 146.868263 31.304074 145.787979 30.935795 C 144.707694 30.567516 143.922033 30.186962 143.443271 29.818683 L 142.71899 29.229437 L 145.075973 25.264303 C 145.260112 25.411615 145.493356 25.595754 145.775703 25.804445 C 146.05805 26.013137 146.561364 26.295484 147.310197 26.663762 C 148.05903 27.019765 148.69738 27.191628 149.249798 27.191628 C 150.452842 27.191628 151.054364 26.786522 151.054364 25.976309 C 151.054364 25.60803 150.894776 25.325683 150.587877 25.116992 C 150.280978 24.908301 149.765388 24.675057 149.028831 24.417262 C 148.292274 24.147191 147.72758 23.913948 147.310197 23.692981 C 146.266741 23.140563 145.431976 22.526765 144.818178 21.839312 C 144.20438 21.139582 143.909757 20.231161 143.909757 19.101773 C 143.909757 17.395416 144.560383 16.069612 145.886186 15.112088 C 147.199714 14.166839 148.992003 13.688077 151.250779 13.688077 Z M 151.250779 13.688077 " stroke="#004aad" stroke-width="1.229872" stroke-opacity="1" stroke-miterlimit="4"/></g><g fill="#26569a" fill-opacity="1"><g transform="translate(74.550884, 34.588902)"><g><path d="M 4.875 -1.65625 C 5.15625 -1.65625 5.425781 -1.695312 5.6875 -1.78125 C 5.945312 -1.875 6.140625 -1.957031 6.265625 -2.03125 L 6.453125 -2.15625 L 7.234375 -0.59375 C 7.210938 -0.570312 7.175781 -0.546875 7.125 -0.515625 C 7.082031 -0.484375 6.976562 -0.421875 6.8125 -0.328125 C 6.644531 -0.242188 6.46875 -0.171875 6.28125 -0.109375 C 6.09375 -0.046875 5.84375 0.0078125 5.53125 0.0625 C 5.226562 0.113281 4.914062 0.140625 4.59375 0.140625 C 3.84375 0.140625 3.128906 -0.0390625 2.453125 -0.40625 C 1.785156 -0.769531 1.242188 -1.273438 0.828125 -1.921875 C 0.421875 -2.566406 0.21875 -3.265625 0.21875 -4.015625 C 0.21875 -4.578125 0.335938 -5.117188 0.578125 -5.640625 C 0.828125 -6.160156 1.148438 -6.609375 1.546875 -6.984375 C 1.953125 -7.359375 2.421875 -7.65625 2.953125 -7.875 C 3.484375 -8.09375 4.03125 -8.203125 4.59375 -8.203125 C 5.113281 -8.203125 5.59375 -8.140625 6.03125 -8.015625 C 6.46875 -7.890625 6.78125 -7.765625 6.96875 -7.640625 L 7.234375 -7.46875 L 6.453125 -5.90625 C 6.410156 -5.9375 6.34375 -5.976562 6.25 -6.03125 C 6.15625 -6.09375 5.972656 -6.164062 5.703125 -6.25 C 5.429688 -6.34375 5.15625 -6.390625 4.875 -6.390625 C 4.425781 -6.390625 4.023438 -6.316406 3.671875 -6.171875 C 3.328125 -6.035156 3.050781 -5.847656 2.84375 -5.609375 C 2.644531 -5.378906 2.488281 -5.128906 2.375 -4.859375 C 2.269531 -4.585938 2.21875 -4.3125 2.21875 -4.03125 C 2.21875 -3.414062 2.445312 -2.863281 2.90625 -2.375 C 3.363281 -1.894531 4.019531 -1.65625 4.875 -1.65625 Z M 4.875 -1.65625 "/></g></g></g><g fill="#26569a" fill-opacity="1"><g transform="translate(81.901442, 34.588902)"><g><path d="M 1.046875 -0.59375 C 0.492188 -1.09375 0.21875 -1.726562 0.21875 -2.5 C 0.21875 -3.269531 0.507812 -3.90625 1.09375 -4.40625 C 1.675781 -4.90625 2.394531 -5.15625 3.25 -5.15625 C 4.082031 -5.15625 4.785156 -4.90625 5.359375 -4.40625 C 5.941406 -3.90625 6.234375 -3.269531 6.234375 -2.5 C 6.234375 -1.726562 5.953125 -1.09375 5.390625 -0.59375 C 4.828125 -0.101562 4.113281 0.140625 3.25 0.140625 C 2.34375 0.140625 1.609375 -0.101562 1.046875 -0.59375 Z M 2.390625 -3.34375 C 2.171875 -3.125 2.0625 -2.84375 2.0625 -2.5 C 2.0625 -2.15625 2.164062 -1.875 2.375 -1.65625 C 2.59375 -1.4375 2.878906 -1.328125 3.234375 -1.328125 C 3.566406 -1.328125 3.84375 -1.4375 4.0625 -1.65625 C 4.28125 -1.882812 4.390625 -2.164062 4.390625 -2.5 C 4.390625 -2.84375 4.273438 -3.125 4.046875 -3.34375 C 3.828125 -3.570312 3.554688 -3.6875 3.234375 -3.6875 C 2.898438 -3.6875 2.617188 -3.570312 2.390625 -3.34375 Z M 2.390625 -3.34375 "/></g></g></g><g clip-path="url(#f63930050f)"><path stroke-linecap="butt" transform="matrix(0.228679, 0, 0, 0.228679, 70.900071, 24.781633)" fill="none" stroke-linejoin="miter" d="M 35.386428 33.75204 C 36.599239 33.75204 37.794968 33.56414 38.939451 33.188339 C 40.101016 32.812539 40.955108 32.45382 41.484645 32.112184 L 42.287492 31.565565 L 45.70386 38.398301 C 45.601369 38.48371 45.447632 38.586201 45.24265 38.739938 C 45.037668 38.876592 44.576459 39.13282 43.859021 39.525702 C 43.124502 39.918585 42.355819 40.24314 41.535891 40.533531 C 40.698881 40.823922 39.622725 41.063068 38.273259 41.285132 C 36.940876 41.524278 35.557247 41.64385 34.139454 41.64385 C 30.876823 41.64385 27.767928 40.841004 24.829851 39.235311 C 21.908856 37.629618 19.534481 35.408979 17.740887 32.607557 C 15.947294 29.771971 15.059038 26.731404 15.059038 23.45169 C 15.059038 20.974824 15.588575 18.600448 16.630568 16.328563 C 17.689642 14.056678 19.090353 12.109348 20.849782 10.486574 C 22.59213 8.863799 24.641951 7.565579 26.965081 6.591914 C 29.305293 5.618249 31.696751 5.139957 34.139454 5.139957 C 36.428421 5.139957 38.512405 5.413267 40.442653 5.942804 C 42.355819 6.489423 43.722367 7.036042 44.508131 7.582661 L 45.70386 8.385507 L 42.287492 15.218243 C 42.099592 15.047425 41.792119 14.842443 41.399236 14.603297 C 41.006354 14.364151 40.203507 14.039596 39.007779 13.646714 C 37.81205 13.23675 36.599239 13.031768 35.386428 13.031768 C 33.439099 13.031768 31.713833 13.356323 30.176467 13.971269 C 28.639101 14.603297 27.426291 15.423225 26.520953 16.448136 C 25.632698 17.473046 24.949424 18.583366 24.471132 19.762013 C 24.009923 20.94066 23.770777 22.136389 23.770777 23.366281 C 23.770777 26.04813 24.778606 28.439588 26.777181 30.574818 C 28.775756 32.692966 31.645505 33.75204 35.386428 33.75204 Z M 50.845494 38.398301 C 48.419873 36.228907 47.207062 33.461649 47.207062 30.079445 C 47.207062 26.680158 48.471118 23.895818 50.999231 21.726425 C 53.527343 19.539949 56.670402 18.463793 60.394243 18.463793 C 64.066839 18.463793 67.158652 19.557031 69.669682 21.743506 C 72.197795 23.947064 73.461851 26.714322 73.461851 30.079445 C 73.461851 33.427485 72.231958 36.194743 69.772173 38.381219 C 67.312388 40.550613 64.186411 41.64385 60.394243 41.64385 C 56.46542 41.64385 53.288197 40.550613 50.845494 38.398301 Z M 56.704565 26.355603 C 55.713819 27.329268 55.218445 28.559161 55.218445 30.079445 C 55.218445 31.582646 55.696737 32.812539 56.636238 33.769122 C 57.575739 34.725705 58.822713 35.186915 60.360079 35.186915 C 61.829117 35.186915 63.041928 34.708623 63.998511 33.75204 C 64.955094 32.778375 65.433386 31.548483 65.433386 30.062363 C 65.433386 28.559161 64.938012 27.329268 63.964347 26.355603 C 62.973601 25.39902 61.777872 24.903647 60.360079 24.903647 C 58.908123 24.903647 57.67823 25.39902 56.704565 26.355603 Z M 56.704565 26.355603 " stroke="#e98321" stroke-width="1.600927" stroke-opacity="1" stroke-miterlimit="4"/></g><g fill="#26569a" fill-opacity="1"><g transform="translate(38.345046, 14.436107)"><g><path d="M 5.859375 -10.078125 L 9.921875 0 L 7.453125 0 L 6.703125 -2.015625 L 2.875 -2.015625 L 2.125 0 L -0.34375 0 L 3.734375 -10.078125 Z M 5.921875 -4.03125 L 4.796875 -6.96875 L 4.78125 -6.96875 L 3.65625 -4.03125 Z M 5.921875 -4.03125 "/></g></g></g><g fill="#26569a" fill-opacity="1"><g transform="translate(47.919897, 14.436107)"><g><path d="M 1.09375 -6.265625 L 1.09375 -8.609375 L 3.265625 -8.609375 L 3.265625 -6.265625 L 4.578125 -6.265625 L 4.578125 -4.625 L 3.265625 -4.625 L 3.265625 -2.625 C 3.265625 -2.050781 3.425781 -1.765625 3.75 -1.765625 C 3.832031 -1.765625 3.914062 -1.78125 4 -1.8125 C 4.09375 -1.84375 4.164062 -1.875 4.21875 -1.90625 L 4.28125 -1.953125 L 4.828125 -0.203125 C 4.359375 0.0546875 3.828125 0.1875 3.234375 0.1875 C 2.828125 0.1875 2.476562 0.113281 2.1875 -0.03125 C 1.894531 -0.175781 1.671875 -0.367188 1.515625 -0.609375 C 1.367188 -0.847656 1.257812 -1.097656 1.1875 -1.359375 C 1.125 -1.628906 1.09375 -1.914062 1.09375 -2.21875 L 1.09375 -4.625 L 0.203125 -4.625 L 0.203125 -6.265625 Z M 1.09375 -6.265625 "/></g></g></g><g fill="#26569a" fill-opacity="1"><g transform="translate(52.74396, 14.436107)"><g><path d="M 1.09375 -6.265625 L 1.09375 -8.609375 L 3.265625 -8.609375 L 3.265625 -6.265625 L 4.578125 -6.265625 L 4.578125 -4.625 L 3.265625 -4.625 L 3.265625 -2.625 C 3.265625 -2.050781 3.425781 -1.765625 3.75 -1.765625 C 3.832031 -1.765625 3.914062 -1.78125 4 -1.8125 C 4.09375 -1.84375 4.164062 -1.875 4.21875 -1.90625 L 4.28125 -1.953125 L 4.828125 -0.203125 C 4.359375 0.0546875 3.828125 0.1875 3.234375 0.1875 C 2.828125 0.1875 2.476562 0.113281 2.1875 -0.03125 C 1.894531 -0.175781 1.671875 -0.367188 1.515625 -0.609375 C 1.367188 -0.847656 1.257812 -1.097656 1.1875 -1.359375 C 1.125 -1.628906 1.09375 -1.914062 1.09375 -2.21875 L 1.09375 -4.625 L 0.203125 -4.625 L 0.203125 -6.265625 Z M 1.09375 -6.265625 "/></g></g></g><g fill="#26569a" fill-opacity="1"><g transform="translate(57.568023, 14.436107)"><g><path d="M 0.9375 -9.765625 C 1.1875 -10.015625 1.488281 -10.140625 1.84375 -10.140625 C 2.195312 -10.140625 2.5 -10.015625 2.75 -9.765625 C 3 -9.515625 3.125 -9.210938 3.125 -8.859375 C 3.125 -8.503906 3 -8.203125 2.75 -7.953125 C 2.5 -7.703125 2.195312 -7.578125 1.84375 -7.578125 C 1.488281 -7.578125 1.1875 -7.703125 0.9375 -7.953125 C 0.6875 -8.203125 0.5625 -8.503906 0.5625 -8.859375 C 0.5625 -9.210938 0.6875 -9.515625 0.9375 -9.765625 Z M 0.734375 -6.265625 L 0.734375 0 L 2.890625 0 L 2.890625 -6.265625 Z M 0.734375 -6.265625 "/></g></g></g><g fill="#26569a" fill-opacity="1"><g transform="translate(61.256296, 14.436107)"><g><path d="M 4.0625 -4.6875 C 3.65625 -4.6875 3.304688 -4.535156 3.015625 -4.234375 C 2.722656 -3.929688 2.578125 -3.566406 2.578125 -3.140625 C 2.578125 -2.710938 2.722656 -2.347656 3.015625 -2.046875 C 3.304688 -1.742188 3.65625 -1.59375 4.0625 -1.59375 C 4.257812 -1.59375 4.445312 -1.613281 4.625 -1.65625 C 4.800781 -1.707031 4.929688 -1.757812 5.015625 -1.8125 L 5.125 -1.875 L 5.859375 -0.375 C 5.796875 -0.332031 5.710938 -0.28125 5.609375 -0.21875 C 5.515625 -0.164062 5.285156 -0.0859375 4.921875 0.015625 C 4.554688 0.128906 4.164062 0.1875 3.75 0.1875 C 2.832031 0.1875 2.023438 -0.132812 1.328125 -0.78125 C 0.628906 -1.4375 0.28125 -2.210938 0.28125 -3.109375 C 0.28125 -4.023438 0.628906 -4.8125 1.328125 -5.46875 C 2.023438 -6.125 2.832031 -6.453125 3.75 -6.453125 C 4.164062 -6.453125 4.546875 -6.398438 4.890625 -6.296875 C 5.242188 -6.203125 5.492188 -6.109375 5.640625 -6.015625 L 5.859375 -5.859375 L 5.125 -4.390625 C 4.851562 -4.585938 4.5 -4.6875 4.0625 -4.6875 Z M 4.0625 -4.6875 "/></g></g></g><path stroke-linecap="butt" transform="matrix(0.372554, 0, 0, 0.372554, 37.129805, 2.346957)" fill="none" stroke-linejoin="miter" d="M 17.518133 3.954747 L 28.443571 30.995732 L 21.81701 30.995732 L 19.814362 25.585438 L 9.518027 25.585438 L 7.515379 30.995732 L 0.888818 30.995732 L 11.814257 3.954747 Z M 17.717349 20.175144 L 14.69765 12.311344 L 14.634739 12.311344 L 11.61504 20.175144 Z M 30.467189 14.177686 L 30.467189 7.907617 L 36.275916 7.907617 L 36.275916 14.177686 L 39.809383 14.177686 L 39.809383 18.612869 L 36.275916 18.612869 L 36.275916 23.949768 C 36.275916 25.501558 36.705804 26.277452 37.576064 26.277452 C 37.796251 26.277452 38.026922 26.235512 38.268078 26.151632 C 38.509235 26.057266 38.697966 25.973386 38.823787 25.889505 L 39.023003 25.753199 L 40.469942 30.440024 C 39.211734 31.142523 37.796251 31.48853 36.20252 31.48853 C 35.112074 31.48853 34.168418 31.299799 33.382038 30.922337 C 32.595658 30.534389 31.998009 30.020621 31.599576 29.370547 C 31.190659 28.730958 30.897077 28.049429 30.718831 27.336444 C 30.55107 26.633945 30.467189 25.87902 30.467189 25.07167 L 30.467189 18.612869 L 28.045139 18.612869 L 28.045139 14.177686 Z M 43.416246 14.177686 L 43.416246 7.907617 L 49.214488 7.907617 L 49.214488 14.177686 L 52.75844 14.177686 L 52.75844 18.612869 L 49.214488 18.612869 L 49.214488 23.949768 C 49.214488 25.501558 49.65486 26.277452 50.525121 26.277452 C 50.745307 26.277452 50.975979 26.235512 51.217135 26.151632 C 51.458292 26.057266 51.647023 25.973386 51.772844 25.889505 L 51.97206 25.753199 L 53.418999 30.440024 C 52.160791 31.142523 50.745307 31.48853 49.151577 31.48853 C 48.06113 31.48853 47.117474 31.299799 46.331094 30.922337 C 45.544714 30.534389 44.947066 30.020621 44.548633 29.370547 C 44.139716 28.730958 43.846134 28.049429 43.667888 27.336444 C 43.500126 26.633945 43.416246 25.87902 43.416246 25.07167 L 43.416246 18.612869 L 40.994196 18.612869 L 40.994196 14.177686 Z M 55.935415 4.793552 C 56.606459 4.122508 57.413809 3.7765 58.357465 3.7765 C 59.301121 3.7765 60.108471 4.122508 60.790001 4.793552 C 61.47153 5.475081 61.807052 6.282431 61.807052 7.236572 C 61.807052 8.169743 61.47153 8.977093 60.790001 9.658623 C 60.108471 10.329667 59.301121 10.665189 58.357465 10.665189 C 57.413809 10.665189 56.606459 10.329667 55.935415 9.658623 C 55.253886 8.977093 54.918364 8.169743 54.918364 7.236572 C 54.918364 6.282431 55.253886 5.475081 55.935415 4.793552 Z M 55.379706 14.177686 L 55.379706 30.995732 L 61.188433 30.995732 L 61.188433 14.177686 Z M 74.231855 18.434623 C 73.130923 18.434623 72.197753 18.843541 71.400888 19.661376 C 70.614508 20.458241 70.22656 21.433352 70.22656 22.565739 C 70.22656 23.729581 70.614508 24.715178 71.400888 25.522528 C 72.197753 26.340363 73.130923 26.738795 74.231855 26.738795 C 74.756109 26.738795 75.248907 26.675885 75.720735 26.539579 C 76.192563 26.403273 76.528085 26.277452 76.748271 26.151632 L 77.052338 25.952415 L 79.013046 29.978681 C 78.866255 30.094017 78.646068 30.230322 78.373457 30.398083 C 78.100845 30.555359 77.482226 30.786031 76.507115 31.069128 C 75.532004 31.341739 74.483497 31.48853 73.37208 31.48853 C 70.908089 31.48853 68.737681 30.61827 66.860854 28.888234 C 64.994512 27.147713 64.061341 25.061185 64.061341 22.639134 C 64.061341 20.196114 64.994512 18.088616 66.860854 16.327125 C 68.737681 14.565634 70.908089 13.684888 73.37208 13.684888 C 74.483497 13.684888 75.511033 13.821194 76.454689 14.083321 C 77.398345 14.345447 78.06939 14.607574 78.457337 14.8697 L 79.013046 15.257648 L 77.052338 19.231488 C 76.328869 18.707235 75.385213 18.434623 74.231855 18.434623 Z M 74.231855 18.434623 " stroke="#e98321" stroke-width="1.229872" stroke-opacity="1" stroke-miterlimit="4"/></svg>